<?xml version="1.0" encoding="UTF-8"?><svg id="a" xmlns="http://www.w3.org/2000/svg" viewBox="0 0 944.99 308.43"><defs><style>.b{fill:#231f20;}</style></defs><path class="b" d="M329.53,116.92c-1.11.29-3.68,1.08-5.42,1.28,3.26-3.16,5.2-6.99,5.2-10.23-1.56.5-4.3,1.53-6.87,2.1,5.06-4.27,7.78-9.21,6.6-15.81-1.53.79-3.7,2.06-5.87,2.91,4.4-6.73,4.34-12.71,2.52-16.19-1.97,1.83-4.33,3.97-6.85,5.52,1.6-7.82,1.52-12.86-1.75-16.36-3.35,6.3-6.2,11-10.94,16.59.37-5.2-.19-11.64-3.53-15,0,0-.98,7.2-3.52,9.53-.61-7.07-2.78-10.91-6.01-14.7,0,0-.2,7.36-2.22,11.91-1.69-6.16-4.85-10.94-8.87-15.46.27,13.56-3.51,39.17-14.41,56.35-1.27,10.22-2.39,25.54-19.01,34.61-2.4-1.68-6.61-3.83-12.52-3.5-1.56-7.71,8.5-14.69,17.17-20.26,8.79-5.68,12.61-10.49,12.4-18.04-.21-8.26-5.82-11.63-11.63-11.89-8.17-.35-14.79,7.05-16.36,10.13-2.36,1.12-9.35,3.29-12.22,4.09-3.19.8-6.78,2.15-9.03,4.01,1.35.85,5.18,1.16,6.66.92,2.78-.37,11.61-2.04,20.06-3.05,3.07,1.67,8.05,4.43,2.78,8.1-7.19,4.6-10.25,5.81-20.4,11.1-16.02,8.4-10.84,29.5-6.91,31.07,0,7.12,6.36,19.99,10.68,24.45,1.94,8.99-.63,22.31-3.35,27.83-2.24-5.44-6.08-18.02-8.64-25.36,2.63-13.92-1.6-20.02-4.52-22.36-2.96-2.41-7.54-1.75-10.56,3.07,4.61-.51,6.16,5.4,6.05,11.51-.11,7.36-1.96,13.26-7.09,13.28.41,6.32,7.16,8.07,10.56,5.04.52,1.43,3.23,9.69,5.81,17.05,1.53,4.33,3.01,8.33,4,10.44,1.04,2.34,8.86,2.66,9.75,0,1.25-3.6,2.24-6.28,4.17-10.44v-.02c1.49-3.19,3.55-7.23,6.69-13.24,2.12,3.59,4.91,9.34,6.52,13.25.75,1.78,1.28,3.23,1.32,3.89.64,5.97.28,27.25-1.32,39.97-17.51-4.77-22.47,3.81-20.93,10.13,2.5-2.8,5.82-2.4,7.85-.95-.51,4.66.77,8.01,5.53,9.43,5.02-13.25,23.08-10.35,24.75-9.24.07-2.56,2.49-9-6.78-10.31.33-11.51,1.52-25.56,1.95-28.49.41-2.93.74-4.76-.65-9.37-.42-1.36-.91-3.05-1.43-5.05h0c-1.21-4.65-2.46-10.74-2.54-17.31,1.62,1.59,5.45,2.86,8.1,2.31,2.05,8.65,4.98,6.13,6.53,9.8.78,1.84.95,3.63,1.18,5.21.18,1.49.43,2.82,1.27,3.93,6.2.2,11.47-1.3,15.26-3.93,1.15-.85,2.17-1.78,3.03-2.77-1.51-9.23-4.12-13.78-8.94-19.39-1.26-7.56-4.8-14.46-9.64-20.56,6.12-1.97,12.26-6.94,15.55-10.4,2.91-.22,6.27-2.65,6.52-7.41,1.71-.21,3.16-.29,4.49-.57-.14-1.3-.48-3.29-.7-4.45,2.26,0,4.41-.11,6.5-.31-.61-1.74-1.39-3.54-2.02-4.87,2.25,0,5.03-.16,7.28-.29-1.21-2.22-2.11-4.2-2.81-6.16,2.59-.27,6.6-.93,9.85-1.67-1.04-1.1-2.22-2.25-4.04-4.01,8.52-2.52,12.23-8.45,12.68-11.03-1.28,0-3.86.55-5.41.41,4.79-2.81,7.98-6.63,8.47-10.78Z"/><path class="b" d="M210.3,136.06h-107.73v39.81c.51.27.99.65,1.46,1.09v-39.2h107.16v36.42c.39.42.74.91,1.11,1.57v-39.69h-1.99Z"/><path class="b" d="M157.28,273.15c-47.53-17.69-53.56-56.68-53.73-74.38-.04-.02-.11-.02-.18-.04.11-.45.12-.83.18-1.3.02-3.81.32-6.42.43-7.33-.13-2.53-.53-4.49-.95-5.97-.1-.3-.32-.65-.46-.93v18.37c0,20.52,7.54,38.27,22.4,52.63,13.01,12.59,27.63,18.47,31.79,19.98l.69.24.65-.24c4.18-1.51,18.79-7.39,31.81-19.98,14.87-14.36,22.38-32.1,22.38-52.63v-3.37c-.37.58-.77.99-1.17,1.47-.42,9.23-2.12,23.52-8.25,34.3-7.37,15.1-18.65,27.54-45.59,39.16Z"/><path class="b" d="M138.27,100.86c-7.43.42-14.69,10.06-11.61,21.05-1.11.39-4.31.36-5.38-1.89-.77,3.61-8.05,7.68-13.34,7.15,2.91-3.17,4.89-10.3,10.59-14.06,5.76-3.8,8.36-6.36,10.37-12.8-2.68,1.25-16.52,4.82-20.42.55,9.11-1.33,19.89-6.44,25.18-9.8l-2.11-2.2c-5.73,3.2-13.35,5.85-17.19,7.07-1.38-11.41,9.46-10.96,10.26-7.86,4.5-5.34,1.34-12.96-1.95-13.79,3.37-9.08,0-14.69-2.88-18.06-.67,9.68-11.44,11.22-12.7,18.63-.42-5.89-.82-21.78-1.28-29.55-.83-14.39-19.01-19.42-21.79-19.42-11.91.55-13.03-.99-12.73-6.51-6,6.85-3.99,12.96,1.12,15.89-.71,4.11-7.29,7.33-11.33,8.23,9.63,8.97,20.83,3.63,26.19-1.46.39-.34.79-.7,1.18-1.02,1.94,3.41,3.34,9.62,3.34,13.19-9.03-.48-10.65,6.51-10.65,9.02,11.49-4.74,12.71,17.21,15.73,20.76-2.94-.21-8.1-6.99-15.73-7.47-9.18-.6-12.41,4.33-16.15,4.14.7,6.47,8.58,10.11,13.7,10.9-2.57,6.63-.3,11.15,5.12,12.77,0-6.06,7.68-7.95,15.92-3.12,9.9,5.75,14.99,6.26,22.94,3.8-1.31,2.9-4.9,3.18-9.31,7.49-6.12,6.09-6.31,14.03-13.21,16.86,8.07,3.86,20.23-1.53,21.97-4.6,3.35,2.11,7.71.87,8.89-1.26-5.46-12.1,3.75-19.29,7.38-19.17,0,0,1.62-3.6-.12-3.48h0ZM96.25,95.87c-4.08-1.66-10.32-2.7-13.79,2.19-1.89-3.29.9-8.26,2.67-9.72-8.88.15-13.94-2.56-15.24-5.25,3.29-1.81,11.58-4.83,18.38.14,4.69,3.43,7.05,5.12,12.6,6.92,1.98-2.01,1.25-1.11,1.87-1.65-4.55-3.14-6.56-27.36-15.48-28.29,1.29-3.05,5.89-2.8,9.59-1.79.27-5.43-1.97-14.37-5.31-19.54,5.16-2.75,8.7.22,10.51,6.66,1.9,6.85-.38,23.92,4.12,39.31l2.79-2.57c-1.4-8.98,8.49-12.26,10.62-16.74.87,6.03-.4,8.75-2.08,10.92,3.56.42,5.16,3.92,4.61,6.37-8.59-1.27-13.58,7.35-11.66,14.18-6.37,1.42-10.7.33-14.21-1.12h0ZM71.9,28.53c6.78,3.33,8.95-2.78,21.6,5.41-8.37,2.63-14.82,13.01-24.25,10.34,6.78-3.35,6.07-8.33,10-10.79-2.52-.32-7.42-1.46-7.35-4.96h0Z"/><path class="b" d="M226.31,67.63c0-13.49-.48-24.55-.64-28.06.5.12,1.04.31,1.63.52,9.68,3.37,11.9,15.03,31.88,1.8-10.69,1.28-11.26-7.82-16.14-8.01,7.39-4.22,7.9-13.84,7.9-13.84-6.25,4.99-20.64,5.31-23.42,6.96-3.74,2.25-8.43,4.96-11.63,6.72-8.32,4.52-2.51,29.18-3.35,38.2-4.5-13.43-13.58-11.43-18.33-19.12-3.58,6.44.21,17.21,1.66,20.29-5.16,4.2-3.78,11.96-2.5,14.05,4.42-3.16,11.24-2.38,13.3,2.97-5.78,3.54-15.49,4.16-22.12-2.24l-2.36,2.63c4.66,6.2,16.39,8.6,25.1,3.6-.03,1.41-.33,2.98-.9,4.74-4.52,2.4-10.38,3.73-17.07,1.39.92,6.77,8.69,11.82,16.08,13.86-2.5,1.97-5.59,2.72-7.8,2.47,1.36,3.9,2.14,9.14-.78,13.25-3.7-2.44-5.66-4.91-7.06-14.41-1.43-9.49-8.27-19.16-13.58-21.13-.28,3.36-.28,1.91.27,4.07,14.14,10.38,6.15,29.02,20.86,35.75,5.37-6.18,5.43-8.3,4.61-14.14,5.31-1.4,9.27-5.86,10.69-9.3-5.04,2.38-13.02-1.81-15.24-5.1,8.74-.26,16.82-6.9,25.1-15.5,7.42-7.76,17.27-6.6,16.51-.52,5.12-.75,7.13-7.76,5.43-12.23,7.51-2.36,13.39-7.9,14.2-16.57-10.03,5.04-22.78-3.32-32.3,6.91h0ZM238.4,74.93c4,3.26,2.68,7.89,1.74,8.94-3.47-6.03-14.67-3.92-25.66,8.45-.76.95-1.8,1.99-3.01,3.08.86-14.84-11.28-15.08-14.84-13.59.38-4.25,3.03-7.17,4.45-7.61-3.56-4.11-4.35-9.34-4.76-13.14,5.94,2.6,14.75,9.51,16.22,21.46l3.84-2.58c-1.15-20.92-.9-20.84-1.05-35.04-.02-1.98.08-6.63,6.41-6.12.24,5.26,1.06,19.29.78,38.78h2.26c2.03-5.45,9.24-11.8,17.62-11.23,5.73.36,7.7.24,10.99-1.2-2.68,6.51-12.47,9.36-14.99,9.8h0ZM221.95,35.13c4.08-2.93,6.66-4.21,8.76-5.47,3.51.13,9.53-.28,13.17-2.1-3.79,4.64-4.2,6.32-10.35,6.99,7.95.71,11.31,7.85,15.25,8.94-13.3,4.06-14.64-9.15-26.82-8.36h0Z"/><path class="b" d="M171.91,113.58c-.67,0-1.32.32-1.71.86-.74-.14-1.55-.27-2.35-.36l.02-4.29c.76-.36,1.28-1.11,1.28-2.03,0-1.19-.93-2.15-2.12-2.15s-2.17.96-2.17,2.15c0,.82.46,1.53,1.12,1.91l-.03,4.15c-.74-.07-1.5-.14-2.29-.21-.32-.75-1.08-1.29-1.94-1.29-1.2,0-2.17.96-2.17,2.19,0,1.15.97,2.15,2.17,2.15.74,0,1.43-.38,1.8-1.02.84.11,1.66.18,2.44.3l-.08,6.29c-.67.37-1.15,1.07-1.15,1.91,0,1.2.95,2.16,2.16,2.16s2.16-.96,2.16-2.16c0-.89-.52-1.64-1.27-1.96l.07-6.03c.72.09,1.37.2,2.04.33.3.84,1.09,1.45,2.04,1.45,1.19,0,2.15-.99,2.15-2.19s-.96-2.16-2.15-2.16h0Z"/><path class="b" d="M153.18,112.33c-.9,0-1.66.54-1.98,1.29-.77.07-1.55.14-2.29.21l-.04-4.15c.68-.37,1.15-1.09,1.15-1.91,0-1.19-.99-2.15-2.16-2.15s-2.19.96-2.19,2.15c0,.92.52,1.67,1.29,2.03l.06,4.29c-.83.08-1.62.21-2.4.36-.34-.54-.96-.86-1.67-.86-1.2,0-2.16.97-2.16,2.16s.96,2.19,2.16,2.19c.95,0,1.73-.61,2.06-1.45.64-.13,1.31-.24,2.01-.33l.07,6.03c-.74.32-1.27,1.07-1.27,1.96,0,1.2.98,2.16,2.15,2.16s2.18-.96,2.18-2.16c0-.84-.47-1.54-1.18-1.91l-.04-6.29c.77-.12,1.57-.2,2.41-.3.37.65,1.04,1.02,1.83,1.02,1.18,0,2.13-1,2.13-2.15,0-1.23-.96-2.19-2.13-2.19h0Z"/><path class="b" d="M181.88,130.85c-1.31-8.7-4.47-33.11-4.85-41.27l-3.7.15c.05,1.4.21,3.25.38,5.39-4.45-1.31-10.31-2.23-16.27-2.23s-11.85.92-16.32,2.23c.2-2.14.33-3.98.39-5.39l-3.71-.15c-.34,8.16-3.5,32.57-4.8,41.27-2.27.87-3.7,3.1-3.7,7.09,0,0,20.29.27,28.13.27s28.08-.27,28.08-.27c0-3.99-1.46-6.22-3.64-7.09h0ZM157.44,130.63c-3.23,6.17-9.21,5.97-14.44,2.54-2.09-1.36-4.23-2.3-6.21-2.62.91-6.06,2.4-17.46,3.48-27.13,6.75-3.06,15.09-3.76,17.17,4,2.04-7.77,10.38-7.06,17.14-4,1.08,9.67,2.57,21.08,3.48,27.13-1.96.32-4.14,1.26-6.23,2.62-5.21,3.43-11.18,3.64-14.39-2.54h0Z"/><path class="b" d="M271.15,284.99c-2.36.73-5.19,1.14-9.46,1.14h-5.28c-18.21-.36-36.92-5.8-48.4-17.52,15.88-15.98-2.74-29.13-12.83-15.57-3.14,4.22-5.62,7.23-7.81,11.34-1.77,3.32-.44,6.62,3.5,11.73,2.14,2.81,7.51,7.16,11.89,10.02h-90.94c4.37-2.86,9.73-7.2,11.92-10.02,3.91-5.12,5.27-8.42,3.49-11.73-2.18-4.11-4.68-7.12-7.83-11.34-10.08-13.56-28.68-.42-12.82,15.57-11.48,11.73-30.16,17.17-48.39,17.52h-5.02c-4.27,0-7.11-.41-9.46-1.14-3.76-.91-4.6.73-2.57,7.21,1.4,4.33,2.51,11.39,3.01,16.24h226.6c.48-4.84,1.58-11.91,2.99-16.24,2-6.48,1.18-8.12-2.58-7.21h0ZM200.24,253.59c2.95-3.97,7.27-2.9,9.09.42,1.89,3.54-.87,7.92-4.62,11.32-5.16-5.57-5.74-10.05-4.46-11.73h0ZM192.66,272.2c-1.83-2.59-2.45-4.09-1.49-6.61.9-2.37,2.85-4.55,4.87-7.54,3.16,12.37,21.81,24.12,35.55,28.07h-21.94c-5.62-3.1-12.82-8.07-17-13.92h0ZM105.27,254c1.79-3.32,6.12-4.39,9.08-.42,1.25,1.68.71,6.16-4.48,11.73-3.75-3.4-6.53-7.78-4.6-11.32h0ZM118.53,258.06c2.04,2.99,3.95,5.17,4.88,7.54.94,2.52.33,4.02-1.48,6.61-4.18,5.84-11.36,10.82-17.03,13.92h-21.93c13.77-3.95,32.39-15.69,35.56-28.07h0ZM266.81,304.86H48.06c-.97-6.95-2.31-11.42-3.5-15.19h225.74c-1.21,3.77-2.53,8.24-3.49,15.19h0Z"/><path class="b" d="M77.73,299.92s.07.05.09.08l.59,1.6c.07.18,0,.3-.11.33-.14,0-.18,0-.18.11,0,.12.17.12.39.12h2.47c.46,0,.55,0,.55-.12,0-.1-.06-.11-.14-.11-.15,0-.37,0-.55-.07-.27-.06-.66-.24-1.14-1.38-.83-1.97-2.89-7.26-3.2-7.98-.14-.28-.21-.43-.32-.43-.13,0-.22.18-.38.54l-3.26,8.15c-.24.65-.52,1.06-1.08,1.15-.13.02-.32.02-.42.02s-.16,0-.16.11c0,.12.1.12.24.12h2.94c.11,0,.2,0,.2-.12,0-.1-.05-.11-.2-.11h-.19c-.4,0-.51-.15-.51-.42,0-.13.05-.43.18-.74l.27-.73c.04-.08.05-.12.11-.12h3.79ZM74.2,299.29c-.06,0-.08-.05-.06-.1l1.63-4.34s.05-.09.1-.09c.02,0,.04.06.04.09l1.61,4.35s0,.09-.07.09h-3.25Z"/><path class="b" d="M84.18,298.02c0,1.89.48,2.84,1.16,3.44.93.83,2.17.86,2.85.86.85,0,1.81-.08,2.7-.9,1.08-.93,1.24-2.48,1.24-3.92v-1.38c0-1.97,0-2.34.02-2.73.02-.45.11-.65.48-.74.17,0,.26-.03.39-.03.15,0,.22-.02.22-.11s-.08-.11-.27-.11c-.48,0-1.31.02-1.48.02,0,0-.83-.02-1.47-.02-.18,0-.29.02-.29.11s.1.11.25.11c.13,0,.33.03.46.03.41.11.54.3.55.74.02.39.02.77.02,2.73v1.6c0,1.4-.02,2.55-.73,3.23-.54.52-1.25.71-1.81.71-.45,0-1.03-.09-1.61-.51-.65-.51-1.03-1.32-1.03-3.2v-1.84c0-1.97,0-2.34.02-2.73.02-.45.13-.65.48-.74.16,0,.23-.03.4-.03.12,0,.21-.02.21-.11s-.11-.11-.3-.11c-.47,0-1.3.02-1.6.02-.39,0-1.19-.02-1.88-.02-.18,0-.3.02-.3.11s.08.11.24.11c.2,0,.4.03.49.03.44.11.54.3.58.74.02.39.02.77.02,2.73v1.89h0Z"/><path class="b" d="M97.63,298.41c0,1.2,0,2.24-.07,2.78-.05.36-.11.64-.37.68-.12.05-.3.07-.49.07-.15,0-.19.02-.19.11,0,.12.07.12.25.12h1.62c.66,0,1.83.13,2.78.13,2.4,0,3.73-.92,4.34-1.52.71-.77,1.43-2.01,1.43-3.62s-.65-2.63-1.3-3.29c-1.39-1.46-3.58-1.46-5.17-1.46-.79,0-1.59.02-2.01.02-.37,0-1.17-.02-1.88-.02-.18,0-.27.02-.27.11s.07.11.2.11c.19,0,.41.03.53.03.42.11.53.3.55.74.04.39.04.77.04,2.73v2.28h0ZM99.25,295.92v-2.57c0-.14.06-.24.15-.27.11-.05.58-.1.84-.1,1,0,2.5.14,3.7,1.31.54.53,1.24,1.58,1.24,3.22,0,1.33-.27,2.54-1.11,3.26-.8.65-1.65.92-2.98.92-1.01,0-1.52-.27-1.7-.5-.08-.16-.12-.69-.12-1.02-.03-.23-.03-1.27-.03-2.63v-1.62h0Z"/><path class="b" d="M115.43,299.92c.05,0,.11.05.14.08l.62,1.6c.05.18-.05.3-.14.33-.14,0-.19,0-.19.11,0,.12.18.12.39.12h2.46c.49,0,.61,0,.61-.12,0-.1-.08-.11-.17-.11-.16,0-.36,0-.58-.07-.27-.06-.63-.24-1.12-1.38-.85-1.97-2.89-7.26-3.21-7.98-.17-.28-.24-.43-.34-.43-.14,0-.2.18-.37.54l-3.25,8.15c-.24.65-.49,1.06-1.11,1.15-.07.02-.27.02-.4.02-.09,0-.15,0-.15.11,0,.12.08.12.25.12h2.9c.15,0,.23,0,.23-.12,0-.1-.05-.11-.19-.11h-.2c-.39,0-.51-.15-.51-.42,0-.13.07-.43.19-.74l.28-.73c0-.08.04-.12.11-.12h3.74ZM111.94,299.29c-.05,0-.07-.05-.05-.1l1.62-4.34s.04-.09.09-.09c.03,0,.05.06.06.09l1.59,4.35s0,.09-.06.09h-3.25Z"/><path class="b" d="M128.11,293.72c.4-.61.63-.96.93-1.03.17-.04.34-.07.47-.07s.22-.02.22-.11c0-.08-.09-.11-.23-.11-.5,0-1.01.02-1.28.02-.24,0-.8-.02-1.3-.02-.18,0-.27.02-.27.11,0,.09.1.11.16.11.12,0,.27,0,.41.03.12.04.22.13.22.22,0,.11-.03.33-.15.51-.17.36-1.38,2.16-1.76,2.7-.5-.86-1.09-1.79-1.64-2.85-.08-.12-.14-.29-.14-.36,0-.09.05-.12.16-.22.1,0,.26-.03.35-.03.1,0,.17-.02.17-.11s-.08-.11-.25-.11c-.46,0-1.2.02-1.37.02-.58,0-1.66-.02-1.96-.02-.18,0-.26.02-.26.09,0,.11.05.13.14.13.12,0,.33.03.52.13.49.09.78.39,1.09.93l2.23,3.68-2.47,3.54c-.46.62-.7.89-1.07.97-.21.07-.39.07-.49.07-.09,0-.17.02-.17.11,0,.12.08.12.19.12h2.75c.17,0,.27,0,.27-.12,0-.08-.08-.11-.15-.11-.12,0-.25,0-.31-.02-.11-.05-.24-.11-.24-.23,0-.14.07-.33.16-.5l1.95-3.14c.59.97,1.32,2.28,2.04,3.51.11.17.05.3-.04.32-.11.04-.17.07-.17.13,0,.08.11.17.45.17h2.72c.14,0,.23,0,.23-.12,0-.1-.07-.11-.16-.11-.11,0-.25,0-.48-.08-.37-.1-.56-.28-.76-.55-.31-.41-2.42-3.92-2.85-4.56l2.14-3.03h0Z"/><path class="b" d="M149.28,299.92c.07,0,.1.05.12.08l.61,1.6c.06.18-.01.3-.12.33-.13,0-.17,0-.17.11,0,.12.17.12.39.12h2.47c.46,0,.56,0,.56-.12,0-.1-.07-.11-.17-.11-.14,0-.31,0-.53-.07-.27-.06-.65-.24-1.13-1.38-.85-1.97-2.91-7.26-3.21-7.98-.13-.28-.23-.43-.36-.43-.12,0-.2.18-.35.54l-3.25,8.15c-.24.65-.48,1.06-1.12,1.15-.07.02-.26.02-.37.02-.1,0-.16,0-.16.11,0,.12.08.12.25.12h2.89c.17,0,.22,0,.22-.12,0-.1-.02-.11-.18-.11h-.18c-.39,0-.52-.15-.52-.42,0-.13.06-.43.2-.74l.24-.73c.05-.08.07-.12.12-.12h3.76ZM145.78,299.29c-.05,0-.08-.05-.05-.1l1.6-4.34s.05-.09.09-.09c.02,0,.04.06.05.09l1.65,4.38s0,.06-.06.06h-3.28Z"/><path class="b" d="M157.23,298.41c0,1.2,0,2.24-.05,2.78-.04.36-.13.64-.4.68-.1.05-.27.07-.45.07-.15,0-.21.02-.21.11,0,.12.11.12.26.12h3.68c.16,0,.25,0,.25-.12,0-.08-.06-.11-.23-.11-.18,0-.48-.02-.64-.07-.39-.05-.49-.32-.52-.67-.06-.55-.06-1.59-.06-2.79v-5.3l1.63.02c1.15.06,1.5.42,1.53.74v.11c.02.21.05.27.15.27.05,0,.1-.1.11-.19,0-.35.04-1.23.04-1.5,0-.18,0-.27-.11-.27-.11,0-.43.12-1.25.12h-5.12c-.45,0-.93-.02-1.31-.04-.31-.05-.45-.19-.55-.19-.08,0-.14.08-.17.25-.04.09-.25,1.27-.25,1.46,0,.17,0,.24.08.24.11,0,.14-.08.17-.17.02-.11.1-.27.24-.44.17-.31.48-.34,1.23-.4l1.93-.03v5.3h0Z"/><path class="b" d="M179.79,297.36c0-.07.02-.08.12-.08.21,0,1.58,0,1.91.02.39.06.61.29.66.43.03.18.08.32.08.43,0,.09.02.21.14.21.08,0,.08-.18.08-.29,0-.08.03-.69.06-.93.04-.42.1-.74.1-.81,0-.07-.02-.12-.06-.12-.1,0-.12.05-.17.14-.13.16-.3.23-.55.23-.19.01-.37.01-.59.01l-1.65.02c-.12,0-.12-.03-.12-.14v-3.23c0-.14.05-.17.14-.17l1.97.03c.52,0,.79.24.87.4.08.17.08.36.08.47.02.17.03.21.13.21.07,0,.11-.04.12-.18.03-.14.04-.9.05-1.02.05-.33.12-.49.12-.58,0-.06-.03-.13-.09-.13s-.13.07-.2.12c-.13.01-.29.01-.54.03-.29,0-2.94,0-3.41,0-.39,0-1.21-.02-1.88-.02-.22,0-.29.02-.29.11s.06.11.2.11c.19,0,.41.03.52.03.42.11.52.3.56.74,0,.39,0,.77,0,2.73v2.28c0,1.28,0,2.24-.06,2.78-.08.36-.12.64-.38.68-.11.05-.26.07-.45.07-.17,0-.19.02-.19.11,0,.12.08.12.27.12h3.61c.2,0,.29,0,.29-.12,0-.08-.08-.11-.21-.11-.19,0-.46-.02-.65-.07-.39-.05-.47-.32-.52-.68-.07-.54-.07-1.5-.07-2.78v-1.05h0Z"/><path class="b" d="M188.08,298.41c0,1.28,0,2.3-.05,2.85-.05.32-.11.57-.37.61-.11.05-.29.07-.47.07-.16,0-.21.02-.21.11,0,.12.1.12.27.12h3.65c.12,0,.24,0,.24-.12,0-.08-.08-.11-.21-.11-.22,0-.51-.02-.67-.07-.39-.05-.48-.3-.52-.61-.04-.55-.04-1.56-.04-2.85v-2.28c0-1.97,0-2.34.02-2.73.02-.45.12-.65.48-.74.15,0,.26-.03.39-.03s.22-.02.22-.13c0-.08-.12-.09-.3-.09-.47,0-1.25.02-1.59.02s-1.17-.02-1.65-.02c-.21,0-.31.02-.31.09,0,.11.07.13.21.13.15,0,.31.03.46.03.3.11.41.3.44.74.02.39.02.77.02,2.73v2.28h0Z"/><path class="b" d="M195.83,298.41c0,1.2,0,2.24-.07,2.78-.02.36-.11.64-.37.68-.13.05-.29.07-.48.07-.14,0-.21.02-.21.11,0,.12.12.12.28.12h1.64c.64,0,1.81.13,2.75.13,2.38,0,3.73-.92,4.34-1.52.72-.77,1.41-2.01,1.41-3.62s-.62-2.63-1.27-3.29c-1.41-1.46-3.57-1.46-5.18-1.46-.75,0-1.61.02-2.01.02-.33,0-1.17-.02-1.85-.02-.23,0-.3.02-.3.11s.07.11.23.11.39.03.51.03c.42.11.51.3.55.74.02.39.02.77.02,2.73v2.28h0ZM197.45,295.92v-2.57c0-.14.08-.24.2-.27.08-.05.56-.1.81-.1,1.04,0,2.51.14,3.7,1.31.52.53,1.21,1.58,1.21,3.22,0,1.33-.25,2.54-1.09,3.26-.77.65-1.62.92-2.98.92-.99,0-1.51-.27-1.65-.5-.11-.16-.13-.69-.15-1.02-.05-.23-.05-1.27-.05-2.63v-1.62h0Z"/><path class="b" d="M209.66,298.41c0,1.2,0,2.24-.06,2.78-.06.36-.11.64-.35.68-.13.05-.3.07-.48.07-.15,0-.2.02-.2.11,0,.12.1.12.25.12h1.62c.76,0,1.66.08,3.6.08.5,0,.62,0,.7-.37.07-.3.15-1.13.15-1.43,0-.12,0-.27-.08-.27-.09,0-.11.11-.14.23-.1.5-.27.8-.59.96-.33.14-.87.14-1.22.14-1.31,0-1.53-.19-1.56-1.07v-3.04c0-.09.02-.12.11-.12.32,0,1.56.02,1.83.03.46.05.65.23.74.49.03.21.03.36.05.47,0,.11,0,.13.1.13.08,0,.08-.14.08-.24,0-.11.04-.62.05-.86.05-.67.13-.88.13-.98,0-.08-.07-.08-.11-.08-.07,0-.1.05-.17.18-.12.12-.31.18-.65.18-.28.03-1.78.03-2.04.03-.1,0-.12-.03-.12-.17v-3.24c0-.09.02-.12.12-.12.24,0,1.59,0,1.83.03.63.09.77.24.86.49.06.14.07.36.07.47,0,.09.03.17.1.17.11,0,.13-.08.14-.16.04-.17.05-.71.05-.84.07-.58.14-.74.14-.83,0-.06-.03-.13-.1-.13-.05,0-.17.05-.2.07-.11.05-.29.06-.55.08-.27,0-2.84,0-3.26,0-.34,0-1.16-.02-1.83-.02-.2,0-.31.02-.31.11s.08.11.23.11c.18,0,.4.03.48.03.46.11.53.3.57.74.02.39.02.77.02,2.73v2.28h0Z"/><path class="b" d="M221.39,296.13c0-1.97,0-2.34.02-2.73.02-.45.12-.65.45-.74.17,0,.4-.03.52-.03.14,0,.21-.02.21-.11s-.08-.11-.26-.11c-.5,0-1.44.02-1.75.02-.37,0-1.16-.02-1.78-.02-.17,0-.25.02-.25.11s.06.11.18.11c.18,0,.33.03.45.03.42.11.5.3.56.74.03.39.03.77.03,2.73v2.28c0,1.2,0,2.24-.09,2.78-.05.36-.1.64-.37.68-.09.05-.27.07-.49.07-.14,0-.17.02-.17.11,0,.12.08.12.26.12h1.61c1.06,0,1.94.08,3.79.08.66,0,.73-.08.82-.39.1-.37.21-1.36.21-1.5s0-.21-.12-.21c-.11,0-.13.07-.13.21-.05.24-.17.6-.36.79-.3.31-.81.33-1.54.33-.99,0-1.33-.06-1.54-.28-.24-.24-.24-1.13-.24-2.79v-2.28h0Z"/><path class="b" d="M229.43,298.41c0,1.28,0,2.3-.03,2.85-.04.32-.13.57-.38.61-.12.05-.27.07-.46.07-.14,0-.21.02-.21.11,0,.12.11.12.27.12h3.67c.1,0,.24,0,.24-.12,0-.08-.08-.11-.24-.11s-.46-.02-.65-.07c-.39-.05-.5-.3-.53-.61-.06-.55-.06-1.56-.06-2.85v-2.28c0-1.97,0-2.34.04-2.73.02-.45.13-.65.49-.74.16,0,.24-.03.4-.03.14,0,.18-.02.18-.13,0-.08-.1-.09-.25-.09-.52,0-1.26.02-1.6.02-.37,0-1.16-.02-1.68-.02-.18,0-.29.02-.29.09,0,.11.08.13.18.13.17,0,.37.03.49.03.27.11.41.3.42.74.02.39.02.77.02,2.73v2.28h0Z"/><path class="b" d="M238.37,302.32c.68,0,1.43-.08,2.06-.51.93-.59,1.23-1.49,1.23-2.22,0-1.21-.58-2.14-2.13-3.31l-.38-.29c-1.04-.81-1.36-1.27-1.36-1.84,0-.8.58-1.37,1.55-1.37.82,0,1.21.43,1.4.67.28.31.34.71.34.84,0,.14.08.21.14.21.08,0,.12-.1.12-.34,0-1.04.05-1.4.05-1.56,0-.11-.05-.15-.16-.17-.33-.08-.89-.23-1.73-.23-1.81,0-2.98,1.04-2.98,2.45,0,1.05.45,1.96,1.87,3.09l.63.45c1.08.84,1.25,1.47,1.25,2.1s-.55,1.45-1.76,1.45c-.78,0-1.55-.34-1.82-1.3-.06-.26-.12-.49-.12-.64,0-.1,0-.25-.12-.25-.1,0-.14.15-.14.33-.03.21-.08.98-.08,1.68,0,.3.04.39.23.45.54.27,1.13.32,1.88.32h0Z"/><path class="b" d="M199.44,35.88c.11-1.92-3.48-3.4-4.38-3.48-1.53-.11-3.43,3.07-5.4,5.06-1.74-9.33-.82-13.31.15-17.41,3.91,7.1,9.23,8.63,12.04,8.3-9.46-7.54-7.83-14.4-10.71-14.78-1.63-.16-2.82-.05-3.67-.05-3.3,0-3.76,6.41-4.19,9.37-2.14-3.99-4.26-7.33-7.89-11.95-3.49-8.93-7.76-6.71-12.1-10.78,3.38,5.15.64,8.26,8.46,11.98,2.03,1.97,4.41,4.98,6,7.45-1.31,1.7-2.18,2.7-3.4,3.89-.98,1.44-1.47,6.99-4.48,11.18,4.48-1.96,6.22-4.7,7.8-7.33,14.13,10.64,2.67,37.89-.59,43.85-3.11-2.1-7.1-3.29-10.72-3.92l-.37-1.21-3.33-10.75h1.52c1.78,0,2.19-1.18,1.91-2.12l9.77,3,4.3,1.34-2.64-3.65-4.52-6.27,4.52-6.22,2.64-3.68-4.3,1.33-8.78,2.72c-.61-2.01-2.24-2.94-4.06-3.2l2.98-9.97,1.25-4.24-3.59,2.6-6.22,4.54-6.25-4.54-3.61-2.6,1.27,4.24,2.95,9.97c-1.77.26-3.42,1.18-4.05,3.2l-8.77-2.72-4.29-1.33,2.66,3.68,4.52,6.22-4.52,6.27-2.66,3.65,4.29-1.34,9.79-3c-.28.96.08,2.13,1.86,2.13h1.52l-3.31,10.75-.36,1.21c-3.74.65-7.81,1.87-10.93,4.09-9.55-18.47-6.87-37.12,1.12-43.31-.15,3.91,3.29,9.21,4.92,10.31-1.07-4.02.77-11.24-1.35-13.07-1.46-1.23-3.72-1.87-6.07-1.79,1.61-2.65,3.83-6.03,7.59-10.96,5.61-2.67,7.25-9.18,8.62-12.49-6.09,2.26-10.55,5.4-11.54,10.53-2.16,2.84-4.55,6.19-7.2,10.18.13-4.83-2.51-6.48-6.03-6.75-10.26,2.14-9.5,9.55-18.31,14.65,6.02,2.13,15.43-11.1,18.67-9.64.52,8.11-1.33,14.47-1.33,18.89-1.54-1.72-2.35-2.85-3.64-3.07-1.22-.23-4.68.06-7.05,2.67-.65,4.07-.5,11.79-4.33,21.05,5.74-5.26,8.44-15.54,9.37-18.54,1.47,2.01,3.05,6.44,3.41,10.25.7,7.39,5.24,19.66,9.1,25.57-1.08,2.05-1.39,4.38-1.01,6.91-2.98,2.23-3.32,5.34-2.3,7.42,1.11,2.24,4.06,3.75,7.51,2.39l1.1-.45c3.61-1.5,10.4-4.31,18.64-4.31s14.97,2.81,18.63,4.31l1.08.45c3.48,1.36,6.39-.15,7.48-2.39,1.06-2.09.72-5.19-2.26-7.42.39-2.73-.02-5.22-1.28-7.42l.1.12c7.03-9.97,7.49-29.09,13.3-34.51.49,6.67,4.06,12.23,7.55,12.98-2.82-4.61-2.82-13.77-2.6-17.99h0ZM167.29,44.81l5.14-1.6-2.5,3.45-.66.9.66.88,2.5,3.48-6.52-2.01c.58-1.35,1.07-2.88,1.38-5.1h0ZM142.42,51.91l2.55-3.48.62-.88-.62-.9-2.55-3.45,5.16,1.6c.29,2.22.81,3.75,1.36,5.1l-6.52,2.01h0ZM162.99,50.21h-4.08l.49-7.26c6.13-2.73,5.59,2.94,3.59,7.26h0ZM161.79,62.56l-3.48-2.52-.87-.65-.92.65-3.45,2.52,2.24-7.29h4.23l2.25,7.29h0ZM156.52,34.53l.92.64.87-.64,3.53-2.58-2.03,6.85c-.08.03-.15.03-.2.06-.34-.84-1.21-1.4-2.17-1.4s-1.81.56-2.21,1.4c-.05-.03-.14-.03-.22-.06l-2.01-6.85,3.51,2.58h0ZM151.88,50.21c-2-4.32-2.57-9.99,3.58-7.26l.51,7.26h-4.09ZM157.44,63.15l4.86,3.52c-2.07-.21-3.81-.23-4.86-.23s-2.82.02-4.87.23l4.87-3.52h0ZM137.39,88.62l-1.07.44c-1.45.55-2.46.11-2.8-.56-.38-.76-.16-2.02,1.65-3.11.23-.13.52-.29.74-.41l3.42,2.84c-.74.31-1.37.58-1.95.81h0ZM149.08,84.86l-3.58-3.54c2.94-.75,6.07-1.22,9.1-1.44l2.16,4.17c-2.74.03-5.28.36-7.67.81h0ZM168.97,85.63l-2.1-4.83c3.18.6,6.25,1.53,8.93,2.64l1.21,4.99c-1.96-.79-4.71-1.91-8.03-2.79h0ZM157.44,76.05c-6.81,0-14.44,1.61-20.31,4.19.09-1.31.55-2.45,1.34-3.46,3.45-4.11,12.35-5.57,18.97-5.57s15.5,1.46,18.89,5.57c.84,1.01,1.29,2.15,1.38,3.43-5.87-2.57-13.4-4.16-20.27-4.16h0Z"/><path class="b" d="M110.72,191.56c-2.62.02-4.28.05-4.31.05-.65,7.52-.34,14.36.7,20.6,2.67-4.41,5.35-8.87,5.23-11.95-.14-3.2-.87-6.09-1.62-8.71Z"/><path class="b" d="M112.63,191.54c.72,2.59,1.43,5.44,1.56,8.62.16,3.69-2.6,8.22-5.52,12.99-.31.59-.62,1.11-.96,1.67,8.34,41.04,48.03,54.71,48.03,54.71v-77.92s-29.9-.08-43.1-.07ZM142.39,240.3c-1.96.44-5.08.64-7.2.64s-5.22-.2-7.21-.64c.24-.83.52-2,.77-3.2-1.47-.15-3-.7-4.19-1.14.61-2.12,1.56-4.21,2.36-7.11,2.66.58,5.25.79,8.26.79s5.6-.21,8.26-.79c.8,2.9,1.75,4.99,2.37,7.11-1.21.44-2.73.99-4.22,1.14.31,1.2.58,2.37.78,3.2ZM126.15,223.23c1.48-.52,7.3-.86,9.05-.86s7.54.33,9.04.86c.15.77.19,1.86.07,2.65-2.25.65-6.18,1.01-9.11,1.01s-6.84-.37-9.09-1.01c-.14-.79-.13-1.88.05-2.65ZM148.19,207.87c-2.24,5.24-4.36,10.67-5,12.32-1.17-.17-2.45-.25-3.71-.32,1.5-4.6,3.3-11.18,4.83-15.32,1.06-2.84,5.98-1.61,3.89,3.32ZM135.19,200.16c.36-2.44,7.23-2.92,5.93,2.46-1.3,5.39-2.94,11.71-4.18,17.13-.58,0-1.15-.02-1.75-.02s-1.19.02-1.76.02c-1.25-5.42-2.88-11.74-4.19-17.13-1.27-5.38,5.59-4.9,5.95-2.46ZM126.1,204.55c1.5,4.14,3.33,10.72,4.78,15.32-1.26.07-2.5.14-3.67.32-.65-1.65-2.83-7.07-5-12.32-2.11-4.93,2.84-6.16,3.89-3.32Z"/><path class="b" d="M199.29,199.25l-.13-1.97,1.97-.02c2.63-.02,3.94-2.52,4.61-5.47-10.17-.06-46.65.05-46.65.05v37.65c3.02-2.26,5.96-4.11,9.76-5.31v-8.24h3.82c.23-9.09,2.38-15.67,6.61-20.04l1.22-1.27,1.26,1.27c4.21,4.36,6.37,10.94,6.6,20.04h3.92v8.78c4.2,1.72,6.97,4.38,9.14,7.18,3.48-7.01,5.96-15.13,6.89-24.51-.19,0-.35.06-.55.06-3.93,0-8.11-2.85-8.46-8.2Z"/><path class="b" d="M208.4,191.84s-.33-.03-.77-.03c-.93,4.28-2.89,7.26-6.49,7.3.27,4.27,3.51,6.47,6.61,6.47.24,0,.47-.08.71-.09.32-4.3.36-8.83-.07-13.65Z"/><path class="b" d="M180.5,226.07c-11.07,0-15.33,3.08-21.41,7.72v36.01s26.25-9.05,40.57-34.43c-3.29-4.92-8.11-9.3-19.16-9.3ZM189.56,240.61l-3.32-3.79-5.64,5.01,2.32,2.68s2.35-1.14,4.45,1.31c-1.56,1.37-4.32,3.73-5.91,5.13-2.1-2.45-.65-4.6-.65-4.6l-2.3-2.65-6.88,6.17-2.25-2.58,7.07-5.93-2.54-2.92s-.9.83-2.29,2.02c-2.03-2.33-3.59-5.41-2.16-9.3,4.05-.88,6.85,1.11,8.89,3.4-1.37,1.21-2.3,2.03-2.3,2.03l2.57,3,5.77-4.89-3.29-3.8c3.01-.38,5.59.69,7.08,2.38,1.45,1.67,2.16,4.42,1.38,7.34Z"/><path class="b" d="M107.91,172.26c2.79,2.28,3.86,3.96,2.95,11.69-.1.96.42,2.78.98,4.74h94.4c.11-1.04.15-2.02.17-2.91.06-4.24-.71-7.58-2.07-8.99-.44-.43-.94-.66-1.83-.66-.06,0-.08,0-.14.02l-3.75.41,2-3.22c1.97-3.17,4.79-5,7.78-5.22v-28.03h-101.8v31.29c.36.23.7.41,1.03.65l.27.25ZM167.93,168.55v-1.97l-4.62-.07c1.1-4.9,10.62-11.1,14.9-12.57-.23-5.31,6.76-7.07,12.39-7.21,6.97-.2,8.58,7.28,8.58,9.6,0,3.07-.79,9.89-4.64,11.98-5.6,3.09-10.38-1.15-10.38-4.99,0-4.22,2.93-6.66,7.94-6.11,5.06.55,4.67-2.25.87-3.24-1.86-.44-9.86-.85-12.52,5.09-1.51.05-3.19-.58-4.15-1.53-1.02,1.37-2.64,2.27-4.86,2.88,1.91,3.96,5.88,3.3,8.27,1.4-.05.54-.09,1.1-.09,1.7,0,9.69,10.34,12.15,16.7,8.52-1.05,3.12-.55,7.13-.13,9.81h-25.05c.44-2.68,3.76-5.74,6.55-7.71l-2.21-3.5c-2.71,1.19-5.3,2.28-8.23,3.04-6.93,1.81-6.52-3.13.68-5.14ZM150.23,176.48c-1,1.38-6.92,3.2-8.39,2.28-2.48-1.52-3.72-4.77-3.16-6.17.72-1.8,7.26-3.62,9.37-2.94,2.1.71,3.01,5.59,2.18,6.82ZM115.46,161c5.53-3.13,8.4-5.45,11.35-10.09-2.2-1.02-4.77-2.98-6.69-5.63,10.51,2.95,15.87,4.45,28.23.07-2.05,3.2-5.04,5.1-7.56,6.69,2.81,4.64,5.58,9.93,6.58,14.15-3.7-.29-7.91.62-10.91,3.35-4.63.22-10.5,1.68-13.72-8.81-1.68.82-3.35,1.96-3.35,1.96,1.88,6.85,5.35,11.51,14.58,10.54.55,2.19.92,3.44,2.08,5.28-3.81,2.22-13.31,7.82-20.59,1.37v-18.88Z"/><path class="b" d="M106.6,173.55v15.14h3.35c-.6-1.97-1.06-3.74-.9-4.96.88-7.65-.3-8.41-2.44-10.19Z"/><path class="b" d="M208.4,188.69v-18.77c-2.18.21-4.46,1.57-6.22,4.37.18-.03.38-.06.54-.06,4.2,0,5.63,5.75,5.51,11.59,0,.96-.06,1.95-.14,2.87h.31Z"/><path class="b" d="M131.35,162.96c1.76.83,3.92-.14,6.18.14-.47-.96-.94-1.68-.67-3.1.56-2.72-1.59-3.4-2.63-3.32-2.56.14-4.01.69-6.67,0,1.83,1.78,1.37,5.11,3.79,6.28Z"/><path class="b" d="M109.19,183.59c.89-7.85-.35-8.45-2.57-10.29-1.97-1.61-5.23-2.12-8.42-4.35-2.28-1.59-2.96-3.91-5.87-6.97.59-6.58,5.32-14.66,8.77-16.45.52-.29.34-10.5.34-10.5,0,0,2.32-.08,2.1-.23-3.1-1.87-6.88-.44-9.59,2.72-2.62,2.13-8.63,6.17-12.79,7.57-5.63-4.74-14.39-8.91-20.78-15.32,0,0,8.47-.1,12.38-1.71,1.06-.62,3.78-4.94,2.68-9.05-1.33-.5-3.23-1.46-5.11-2.5-2.3-1.34-4.56-2.77-5.59-3.55-3.68-2.79-5.17-5.24-11.53-6.83.4-2.94,1.04-2.24,3.83-4.14,3.57-2.42,5.56-5.31,7.01-8.17,1.08-2.22-.15-6.85-3.02-1-1.02,2.08-3.8,4.82-6.93,5.66.25-1.8.34-2.86.34-3.83,9.3-6.59,8.38-12.39,7.68-17.84-.39-3.14-3.54-4.45-3.39-1.19.07,2.18,2.01,8.34-4.36,11.98-.12-2.75-.87-3.98-1.47-5.37,5.69-7.51,3.3-14.71.91-17.97-1.52-2.13-5.27-2.85-3.55.48,1.39,2.73,3.63,10.11-.58,13.14-1.47-1.81-3.13-2.53-3.71-4.95.44-8.11-.09-13.08-1.1-15.96-.99-2.72-3.58-4.39-3.35-.41.23,4.49.61,10.2.18,10.56-.4.36-6.41-5.26-8.86-6.91-2.48-1.71-5.38-1.07-2.52,2.28,2.52,2.96,10.21,8.61,9.24,10.44-.62,1.15-6.13-3.4-8.96-4.35-2.88-.99-3.79.53-1.34,2.51,3.9,3.23,6.51,5.33,12.93,7.49,6.43,2.17,9.66,11.05,7.61,23.79-.08.58-1.18.49-1.8.28-.31-4.85-1.15-10.68-2.3-13.26-1.52-3.31-4.55-3.4-3.43,1.13.87,3.62,1.38,7.51.77,12.34-5.32-.92-7.33-2.32-9.56-3.64-.25-2.47,1-6.51,1.25-10.15.2-3.56-1.9-5.83-3.09-1.32-1.14,4.29-1.89,6.35-2.6,9.42-1.52-.47-3.12-1.16-3.88-2-.36-.39-.02-5.25-.39-8.76-.33-3.95-1.86-3.85-3.07-.33-.53,1.6-.96,3.7-1.11,6.28-1.89-1.14-3.16-3.3-3.37-5.03.28-4.13,1-8.52,1.48-11.27.36-1.96-.98-5.93-2.5-1.11-1.11,3.44-1.42,6.37-2.1,8.82-1.37-.12-3.14-8.01-4.08-13-.4-2.31-2.28-4.91-2.65.17-.37,5.63.77,11.29,2.16,13.78-2.72-.27-5.32-5.17-7.22-8.04-1.66-2.54-2.45.13-2.29,1.12,1.62,10,9.59,13.59,13.22,14.28,5.59,8.03,16.29,11.48,25.31,15.38-11.76-.13-14.81,4.6-20.2,1.54.24,4.43,2.44,6.47,4.55,7.52,1.52.67,3,.9,3.69,1.04.97,5.37,6.1,5.08,10.43,5.37-1.11,10.49.16,24.35,9.37,34.65-.27,5.34-.63,12.33-.57,16.94-7.54,6.98-14.26,21.7-16.91,29.79-2,6.07-4.97,10.79-9.6,12.99,3.79,4.01,9.37,2.01,12.59-.2.23,3.55,1.04,6.11,1.62,8.19-2.16,3.2-3.64,5.47-3.43,9.37-2.47.68-4.12,2.19-5.44,3.86-.82,1.04.11,5.87,1.06,7.9,3,6.73.64,21.92.12,26.44,1.25.06,3.57.14,4.05-1.75.74.67,2.57,2,3.43,4.93-.21,1.28-.93,5.93,1.47,6.53,1.96.49,10.4.2,11.53-1.27-.83-.99-2.31-3.18-3.22-5.43,0-2.3-.22-5.1-.83-6.31-.99-1.68-3.42-5.59-4.98-7.13-.33-2.81-.62-15.18.69-19.94,2.18-1.52,17.08-12.58,20.17-23.18,2.75.93,1.9,8.33,1.9,17.9,0,2.58,3.11,3.85,4.96,4.09,4.03.47,9.79,4.33,16.21,13.86,1.24-1.35,2.88-2.63,2.88-2.63.83,1.15,1.79,3.89,2.36,5.63.7,1.31,5.87,2.07,9.87.87,1.32-.43,2.08-.65,2.95-2.1-5.05-8.78-8.08-14.63-14.57-19.47-3-2.26-6.98-3.4-10.36-5.54,2.24-4.18,8.42-23.91,4.68-31.11-1.26-2.38-5.93-4.78-11.66-3.71,4.78-5.74,14.47-17.07,15.73-20.56,1.12,1.35,6.86.42,11.09,2.08,1.55.63,5.91,6.24,6.1,8.18.37,3.48.58,7.64-1.88,17.15,1.72-.28,1.46-.36,3.11-1.05.29,2.56-.46,4.58-2.69,8.39.55,3.43,2.09,8.74,3.7,9.74,2.18-6.44,10.17-15.56,9.94-20.89-.3-7.26-3.68-13.38-3.29-16.52h0Z"/><path class="b" d="M433.93,176.74s-2.33,1.39-7.22,1.39c-6.29,0-11.89-3.73-14.92-5.69-3.81-2.55-10.12-6.19-16.39-8.16-12.11,0-20.03-3.37-26.19-11.39-6.16-7.93-9.32-18.17-9.32-30.04,0-17.46,6.62-31.54,18.28-37.85,4.77-2.54,10.69-3.94,16.77-3.94,21.53,0,34.81,15.71,34.81,41.1,0,17.57-6.28,30.73-15.95,37.12,2.22.81,5.36,2.92,7.23,4.09,2.9,1.72,6.39,3.36,10.01,3.36s7.2-.6,7.2-.6l-4.3,10.61ZM408.89,103.88c-1.27-4.09-5.58-10.25-14.19-10.25-5.47,0-10.25,2.8-12.56,7.11-2.8,5.23-4.09,12.33-4.09,22.11,0,13.96,2.34,22.71,7.23,26.18,2.55,1.84,5.81,2.79,9.65,2.79,11.28,0,16.06-8.62,16.06-29.21,0-8.25-.69-14.19-2.1-18.73Z"/><path class="b" d="M481.1,164.64c-1.97-1.4-3.6-3.39-4.64-5.83-3.84,3.73-9.44,5.69-15.7,5.69-8.39,0-15.62-3.95-17.58-9.65-.94-2.68-1.29-5.82-1.29-11.89v-38.17l15.36-2.9v38.29c0,5.37.47,8.17,1.28,9.79.82,1.63,3.15,2.79,5.47,2.79,3.84,0,8.49-2.79,9.65-5.71v-41.9l14.91-3.15v45.52c0,3.98,1.28,8.04,3.63,10.82l-11.09,6.32Z"/><path class="b" d="M518.18,138.09v.46c0,9.19,4.55,14.45,12.58,14.45,5.36,0,10.36-2,15.14-5.95l6.04,9.33c-6.87,5.58-14.09,8.26-22.47,8.26-17.1,0-28.16-12.12-28.16-30.87,0-10.72,2.21-17.78,7.45-23.62,4.89-5.49,10.83-8.01,18.74-8.01,6.87,0,13.37,2.3,17.23,6.28,5.48,5.56,7.9,13.62,7.9,26.07v3.6h-34.45ZM536.48,125.98c0-4.44-.48-6.74-1.89-8.96-1.51-2.33-3.72-3.5-6.86-3.5-5.93,0-9.3,4.68-9.3,12.93v.25h18.05v-.73Z"/><path class="b" d="M577.05,138.09v.46c0,9.19,4.53,14.45,12.57,14.45,5.36,0,10.36-2,15.13-5.95l6.04,9.33c-6.85,5.58-14.12,8.26-22.49,8.26-17.08,0-28.16-12.12-28.16-30.87,0-10.72,2.21-17.78,7.45-23.62,4.89-5.49,10.82-8.01,18.75-8.01,6.88,0,13.39,2.3,17.2,6.28,5.49,5.56,7.95,13.62,7.95,26.07v3.6h-34.45ZM595.31,125.98c0-4.44-.46-6.74-1.87-8.96-1.51-2.33-3.73-3.5-6.87-3.5-5.96,0-9.31,4.68-9.31,12.93v.25h18.04v-.73Z"/><path class="b" d="M654.15,163v-38.76c0-6.73-1.15-8.74-5.24-8.74-3.13,0-7.2,2.11-10.81,5.35v42.15h-15.6v-43.19c0-5.12-.7-9.99-2.12-13.96l13.85-3.96c1.41,2.44,2.23,5.02,2.23,7.44,2.32-1.64,4.3-3.04,6.86-4.44,3.15-1.62,7.22-2.52,10.72-2.52,6.64,0,12.46,3.48,14.31,8.6.82,2.21,1.16,4.77,1.16,8.49v43.54h-15.37Z"/><path class="b" d="M703.47,164.87c-7.35,0-15.39-2.33-24.13-6.87l5.59-11.42c4.78,2.92,13.04,6.76,19.8,6.76,4.41,0,7.92-2.92,7.92-6.76,0-4.06-2.92-6.16-9.19-7.32l-7.01-1.28c-3.95-.7-8.86-3.49-10.96-6.04-2.06-2.59-3.35-6.86-3.35-10.73,0-11.64,9.18-19.45,23.04-19.45,9.53,0,15.83,2.9,21.3,5.59l-5.14,10.49c-5.93-3.05-10.23-4.32-14.63-4.32s-7.59,2.34-7.59,5.84c0,3,1.96,4.64,7.46,6.03l7.2,1.87c7.36,1.83,9.8,4.08,11.88,6.75,2.22,2.79,3.26,6.16,3.26,10.12,0,12.36-10.22,20.73-25.47,20.73Z"/><path class="b" d="M755.17,164.4c-6.63,0-11.96-3.15-13.87-8.14-1.12-3.04-1.35-4.9-1.35-13.41v-44.45c0-7.81-.25-12.58-.83-17.93l15.93-3.61c.6,3.25.84,7.11.84,15.47v46.44c0,10.25.1,11.64,1.06,13.27.57,1.06,1.86,1.63,3.14,1.63.56,0,.9,0,1.74-.22l2.69,9.31c-2.69,1.05-5.94,1.62-9.35,1.62Z"/><path class="b" d="M812.4,166.02c-3.61-1.51-6.88-4.18-8.39-7.2-1.15,1.14-2.44,2.32-3.6,3.15-2.91,2.1-7.12,3.25-11.98,3.25-13.28,0-20.49-6.78-20.49-18.63,0-13.96,9.66-20.5,28.62-20.5,1.18,0,2.22,0,3.51.13v-2.42c0-6.66-1.29-8.86-6.97-8.86-5.01,0-10.83,2.46-17.24,6.74l-6.65-11.15c3.17-1.98,5.49-3.16,9.68-4.9,5.83-2.45,10.83-3.48,16.3-3.48,10.01,0,16.89,3.71,19.21,10.32.82,2.46,1.15,4.33,1.03,10.71l-.33,20.03c-.12,6.52.33,9.32,5.6,13.3l-8.28,9.52ZM799.12,136.92c-10.8,0-14.53,1.99-14.53,9.09,0,4.64,2.89,7.79,6.86,7.79,2.9,0,5.81-1.52,8.15-4.08l.23-12.8h-.71Z"/><path class="b" d="M863.23,163v-38.76c0-6.73-1.15-8.74-5.25-8.74-3.16,0-7.22,2.11-10.84,5.35v42.15h-15.6v-43.19c0-5.12-.69-9.99-2.1-13.96l13.86-3.96c1.4,2.44,2.23,5.02,2.23,7.44,2.31-1.64,4.31-3.04,6.85-4.44,3.14-1.62,7.22-2.52,10.72-2.52,6.63,0,12.45,3.48,14.33,8.6.8,2.21,1.17,4.77,1.17,8.49v43.54h-15.37Z"/><path class="b" d="M930.68,163c-.47-.94-.71-1.87-.94-3.49-3.84,3.37-8.38,4.99-13.75,4.99-15.11,0-24.68-11.74-24.68-30.24s10.38-31.43,25.54-31.43c4.28,0,7.64,1.05,10.57,3.36-.24-1.3-.47-5.34-.47-8.85v-20.47l15.48,2.45v61.92c0,14.69,1.17,19.45,2.22,21.77h-13.96ZM927.18,119.14c-2.89-2.58-5.71-3.86-8.49-3.86-7,0-10.01,5.81-10.01,19.11s2.69,16.97,10.82,16.97c2.91,0,6.18-2,7.68-3.85v-28.38Z"/><path class="b" d="M396.66,276.95c-9.97,0-18.49-3.49-24.53-10.01-6.76-7.33-9.91-17.24-9.91-30.97,0-15.25,4.08-26.06,12.36-33.51,5.69-5.15,12.56-7.58,20.83-7.58s15.84,2.67,21.9,7.92l-4.33,5.93c-6.51-4.43-11.16-6.16-17.34-6.16-9.31,0-16.63,4.31-19.91,13.51-2.09,5.93-3.13,12.68-3.13,20.25,0,10.48,1.99,18.98,5.58,24.21,3.61,5.24,11.76,8.5,19.32,8.5,5.02,0,9.34-1.06,12.7-3.14v-24.34h-16.05l-1.87-7.91h26.88v37.26c-5.72,3.72-14.32,6.05-22.49,6.05Z"/><path class="b" d="M459.8,277.17c-15.95,0-25.03-11.77-25.03-30.85s9.45-30.35,24.68-30.35c9.69,0,15.97,4.4,19.92,10.1,3.61,5.24,5.35,12.12,5.35,21.55,0,19.32-10.36,29.55-24.92,29.55ZM471.68,230.86c-2.43-5.14-7.56-7.46-12.33-7.46-5.11,0-9.87,2.42-11.88,6.28-1.86,3.6-2.78,8.27-2.78,15.13,0,8.17,1.39,15.39,3.61,18.99,2.07,3.49,6.75,5.82,11.78,5.82,6.02,0,10.57-3.15,12.55-8.74,1.27-3.63,1.74-6.88,1.74-12.57,0-8.15-.82-13.63-2.69-17.46Z"/><path class="b" d="M520.88,276.25h-8.99l-20.8-58.08,9.31-1.99,13.52,39.93c1.6,4.77,2.76,9.9,2.76,9.9h.25s.92-4.55,2.79-9.79l13.27-38.53h9.68l-21.78,58.56Z"/><path class="b" d="M560.63,248.21v1.37c0,5.49.69,9.67,2.66,12.72,3.28,4.99,8.62,7.08,14.46,7.08s10.13-1.72,14.2-5.48l3.48,5.87c-5.12,4.63-12.11,7.19-19.55,7.19-16.07,0-25.74-11.67-25.74-30.84,0-9.79,2.11-16.08,6.99-21.88,4.67-5.49,10.38-8.05,17.35-8.05,6.27,0,11.76,2.19,15.71,6.28,4.99,5.13,6.63,10.59,6.63,24.45v1.29h-36.19ZM584.48,228.4c-1.96-3.13-6.06-5.12-10.47-5.12-8.26,0-12.91,6.07-13.37,18.06h26.53c-.12-6.3-.93-10.15-2.68-12.94Z"/><path class="b" d="M637.75,226.42c-.58-.22-1.62-.48-2.57-.48-3.48,0-6.98,1.52-9.68,4.23-2.66,2.66-3.36,4.4-3.36,9.17v36.33h-9.08v-44.7c0-8.51-1.98-12.36-1.98-12.36l9.08-2.43s2.22,4.54,1.87,9.44c4.17-5.94,10.35-9.65,16.28-9.65,1.52,0,3.13.57,3.13.57l-3.7,9.88Z"/><path class="b" d="M683.56,275.67v-39.22c0-6.17-.46-7.69-2.08-9.67-1.31-1.5-3.73-2.43-6.41-2.43-4.66,0-11.88,3.7-16.08,8.14v43.18h-8.82v-44.7c0-8.27-2.23-12.23-2.23-12.23l8.86-2.46s2.1,4.32,2.1,9.09c6.03-6.04,12.09-8.95,18.27-8.95s11.88,3.38,14.21,8.51c.93,2.1,1.39,4.43,1.39,6.76v43.99h-9.2Z"/><path class="b" d="M773.86,275.67v-42.84c0-5.59-2.57-8.48-7.46-8.48-5.24,0-9.3,3.36-15.36,8.94v42.38h-9.18v-41.21c0-3.48-.38-5.81-1.65-7.44-1.4-1.65-3.26-2.32-5.93-2.32-4.44,0-8.75,2.19-14.8,7.67v43.3h-8.72v-44.93c0-8.4-2.11-12.36-2.11-12.36l8.85-2.09s2.1,4.57,2.1,8.64c3.84-4.33,10.93-8.74,16.89-8.74s11.41,3.5,13.5,9.64c5.58-5.89,12.67-9.64,18.62-9.64,8.61,0,14.56,6.53,14.56,15.72v43.77h-9.3Z"/><path class="b" d="M808.09,248.21v1.37c0,5.49.71,9.67,2.7,12.72,3.23,4.99,8.58,7.08,14.44,7.08s10.12-1.72,14.21-5.48l3.45,5.87c-5.12,4.63-12.1,7.19-19.55,7.19-16.07,0-25.71-11.67-25.71-30.84,0-9.79,2.09-16.08,6.99-21.88,4.64-5.49,10.33-8.05,17.33-8.05,6.29,0,11.75,2.19,15.7,6.28,5.02,5.13,6.64,10.59,6.64,24.45v1.29h-36.21ZM831.98,228.4c-2-3.13-6.06-5.12-10.5-5.12-8.27,0-12.93,6.07-13.4,18.06h26.57c-.11-6.3-.96-10.15-2.68-12.94Z"/><path class="b" d="M893.96,275.67v-39.22c0-6.17-.49-7.69-2.1-9.67-1.3-1.5-3.73-2.43-6.41-2.43-4.65,0-11.89,3.7-16.06,8.14v43.18h-8.85v-44.7c0-8.27-2.21-12.23-2.21-12.23l8.84-2.46s2.09,4.32,2.09,9.09c6.06-6.04,12.13-8.95,18.27-8.95s11.9,3.38,14.21,8.51c.93,2.1,1.41,4.43,1.41,6.76v43.99h-9.18Z"/><path class="b" d="M942.21,224.58h-12.11v37.34c0,6.41,1.75,8.63,7.44,8.63,2.56,0,4.1-.36,5.71-1.18l1.29,5.83c-2.9,1.52-6.15,2.31-10.25,2.31-3.02,0-5.35-.57-7.58-1.62-4.05-1.99-5.55-5.7-5.55-11.51v-39.8h-7.57v-6.89h7.57c0-5.58.9-14.66.9-14.66l9.55-2.07s-1.17,9.05-1.17,16.73h14.55l-2.79,6.89Z"/></svg>