<?xml version="1.0" encoding="UTF-8"?><svg id="a" xmlns="http://www.w3.org/2000/svg" viewBox="0 0 899.42 289.85"><defs><style>.b{fill:#231f20;}</style></defs><path class="b" d="M358.94,143.82v2.04c0,6.57,1.85,10.78,9.28,10.78,4.33,0,8.45-2.74,8.45-8.62,0-6.38-3.24-8.72-12.55-11.98-12.55-4.3-18.33-9.48-18.33-21.15,0-13.63,8.33-20.58,21.67-20.58,12.54,0,21.66,5.38,21.66,18.81v1.98h-13.53c0-6.57-2.25-10.41-7.64-10.41-6.38,0-8.04,4.03-8.04,8.15s1.27,6.96,7.25,9.5l10.89,4.72c10.58,4.6,13.33,10,13.33,18.51,0,14.81-9.01,21.48-24.3,21.48s-22.25-7.44-22.25-20.39v-2.83h14.12Z"/><path class="b" d="M402.6,97.84h13.51v15.11h7.85v9.22h-7.85v28.51c0,4.12.87,5.77,4.8,5.77,1.09,0,2.18-.09,3.05-.19v9.42c-2.95.29-5.69.59-8.82.59-10.58,0-12.54-3.25-12.54-13.93v-30.17h-6.87v-9.22h6.87v-15.11Z"/><path class="b" d="M430.18,129.11v-1.26c0-12.17,8.33-16.28,18.53-16.28,16.08,0,19.1,6.65,19.1,16.18v27.73c0,4.9.29,7.15,1.67,10.2h-12.93c-.88-1.67-1.28-3.72-1.68-5.49h-.2c-3.11,5.49-6.95,6.86-13.43,6.86-9.39,0-12.72-8.04-12.72-15.1,0-9.88,4.03-13.92,13.33-16.46l7.63-2.06c4.02-1.09,5.39-2.66,5.39-6.16,0-4.03-1.76-6.47-6.27-6.47-4.1,0-6.27,2.74-6.27,6.86v1.46h-12.15ZM454.88,139.31c-1.86,1.38-4.11,2.24-5.78,2.65-5.49,1.16-7.65,3.81-7.65,8.51,0,4.03,1.48,7.33,5.1,7.33s8.33-2.33,8.33-8.12v-10.37Z"/><path class="b" d="M480.89,97.84h13.52v15.11h7.85v9.22h-7.85v28.51c0,4.12.87,5.77,4.82,5.77,1.07,0,2.14-.09,3.03-.19v9.42c-2.94.29-5.69.59-8.83.59-10.58,0-12.53-3.25-12.53-13.93v-30.17h-6.87v-9.22h6.87v-15.11Z"/><path class="b" d="M520.07,141.36v4.21c0,6.19,1.65,12.24,6.65,12.24,4.52,0,6.38-3.4,7.16-9.88h12.17c-.49,12.25-6.39,19.11-19.13,19.11-19.61,0-20.38-15.1-20.38-28.24,0-14.11,2.74-27.24,20.96-27.24,15.8,0,19.33,10.6,19.33,26.76v3.03h-26.77ZM533.89,133.32c-.29-8.04-1.26-12.53-6.87-12.53s-6.95,5.58-6.95,10.49v2.04h13.81Z"/><path class="b" d="M570.29,165.67v-69.99h14.12v58.43h24.99v11.56h-39.11Z"/><path class="b" d="M616.19,94.91h13.54v11.54h-13.54v-11.54ZM616.19,112.95h13.54v52.72h-13.54v-52.72Z"/><path class="b" d="M639.68,95.68h13.53v22.17h.19c2.85-4.22,6.28-6.28,11.38-6.28,11.07,0,16.18,8.13,16.18,27.74s-5.1,27.73-16.18,27.73c-5.3,0-9.03-2.05-11.96-6.96h-.21v5.59h-12.93v-69.99ZM660.37,156.65c5.87,0,7.05-5.88,7.05-17.34s-1.18-17.35-7.05-17.35-7.16,5.89-7.16,17.35,1.17,17.34,7.16,17.34Z"/><path class="b" d="M689.47,112.95h12.94v7.03h.2c2.75-5.08,6.57-8.41,12.15-8.41.78,0,1.65.09,2.46.19v12.95c-1.38-.1-2.85-.19-4.22-.19-4.71,0-10,2.42-10,9.5v31.65h-13.53v-52.72Z"/><path class="b" d="M722.85,129.11v-1.26c0-12.17,8.32-16.28,18.53-16.28,16.08,0,19.1,6.65,19.1,16.18v27.73c0,4.9.3,7.15,1.67,10.2h-12.94c-.87-1.67-1.27-3.72-1.67-5.49h-.2c-3.12,5.49-6.97,6.86-13.43,6.86-9.41,0-12.74-8.04-12.74-15.1,0-9.88,4.04-13.92,13.34-16.46l7.63-2.06c4.02-1.09,5.39-2.66,5.39-6.16,0-4.03-1.76-6.47-6.27-6.47-4.12,0-6.29,2.74-6.29,6.86v1.46h-12.14ZM747.54,139.31c-1.85,1.38-4.11,2.24-5.79,2.65-5.48,1.16-7.65,3.81-7.65,8.51,0,4.03,1.48,7.33,5.1,7.33s8.34-2.33,8.34-8.12v-10.37Z"/><path class="b" d="M770.75,112.95h12.93v7.03h.21c2.72-5.08,6.57-8.41,12.15-8.41.78,0,1.68.09,2.46.19v12.95c-1.37-.1-2.85-.19-4.23-.19-4.69,0-10,2.42-10,9.5v31.65h-13.52v-52.72Z"/><path class="b" d="M806.53,172.83c1.17.21,2.34.31,3.53.31,4.99,0,6.85-2.76,7.26-7.46l-14.81-52.72h14.12l7.85,36.45h.19l6.85-36.45h13.54l-12.76,49.19c-4.71,18.24-7.73,20.79-20.27,20.79h-5.5v-10.1Z"/><path class="b" d="M365.57,211.99c16.28-.29,20.8,9.42,20.8,27.75s-5.31,27.75-20.8,27.75c-16.27.28-20.77-9.41-20.77-27.75s5.29-27.75,20.77-27.75ZM365.57,258.26c5.51,0,7.27-5.4,7.27-18.53s-1.76-18.52-7.27-18.52c-6.65,0-7.25,7.73-7.25,18.52s.59,18.53,7.25,18.53Z"/><path class="b" d="M398.02,222.57h-6.85v-9.2h6.85v-5.97c0-9.53,5.38-12.65,14.11-12.65,2.45,0,4.8.11,7.26.3v9.6c-.88-.11-1.77-.11-2.65-.11-3.82,0-5.19,1.19-5.19,4.22v4.61h7.85v9.2h-7.85v43.55h-13.53v-43.55Z"/><path class="b" d="M483.58,274.74l-8.34-8.62c-1.27.47-2.74.87-4.31,1.07-1.46.2-3.13.31-4.99.31-21.17,0-23.83-15.11-23.83-36.38s2.66-36.36,23.83-36.36,23.81,15.08,23.81,36.36c0,11.85-.77,21.76-5.39,28.43l7.56,7.64-8.34,7.56ZM465.94,257.07c8.32,0,9.7-7.15,9.7-25.97s-1.38-25.99-9.7-25.99-9.72,7.26-9.72,25.99,1.38,25.97,9.72,25.97Z"/><path class="b" d="M526.14,259.94h-.19c-2.85,5.17-7.75,7.55-13.44,7.55-8.42,0-13.43-4.63-13.43-15.02v-39.11h13.53v36.36c0,5.31,1.74,7.35,5.78,7.35,4.6,0,7.15-2.83,7.15-8.71v-35h13.53v52.75h-12.94v-6.17Z"/><path class="b" d="M561.2,241.8v4.2c0,6.18,1.67,12.26,6.65,12.26,4.52,0,6.37-3.44,7.16-9.9h12.16c-.49,12.25-6.37,19.13-19.11,19.13-19.61,0-20.4-15.11-20.4-28.24,0-14.11,2.75-27.26,20.98-27.26,15.79,0,19.3,10.58,19.3,26.77v3.05h-26.75ZM575.02,233.75c-.29-8.04-1.28-12.54-6.86-12.54s-6.95,5.57-6.95,10.48v2.06h13.81Z"/><path class="b" d="M608.19,241.8v4.2c0,6.18,1.68,12.26,6.65,12.26,4.52,0,6.39-3.44,7.17-9.9h12.16c-.5,12.25-6.37,19.13-19.13,19.13-19.59,0-20.39-15.11-20.39-28.24,0-14.11,2.75-27.26,20.98-27.26,15.79,0,19.31,10.58,19.31,26.77v3.05h-26.76ZM622.02,233.75c-.29-8.04-1.28-12.54-6.86-12.54s-6.97,5.57-6.97,10.48v2.06h13.83Z"/><path class="b" d="M643.48,213.36h12.93v6.18h.2c2.84-5.2,7.75-7.56,13.43-7.56,8.44,0,13.43,4.61,13.43,15v39.13h-13.53v-36.38c0-5.29-1.78-7.35-5.78-7.35-4.61,0-7.17,2.85-7.17,8.72v35.01h-13.53v-52.75Z"/><path class="b" d="M703.73,248.84v1.78c0,4.59,2.44,7.64,7.05,7.64,4.11,0,6.85-2.07,6.85-6.27,0-3.44-2.26-5.01-4.91-5.99l-9.5-3.43c-7.44-2.64-11.25-7.26-11.25-14.68,0-8.74,5.48-15.9,19.39-15.9,12.26,0,18.04,5.49,18.04,15v2.16h-12.15c0-5.29-1.56-7.93-5.99-7.93-3.43,0-6.36,1.94-6.36,5.67,0,2.54,1.37,4.7,5.87,6.18l8.13,2.75c8.52,2.84,11.68,7.13,11.68,15.08,0,11.07-8.24,16.58-19.62,16.58-15.19,0-19.41-6.67-19.41-16.77v-1.88h12.17Z"/><path class="b" d="M738.94,196.11h13.51v70.01h-13.51v-70.01Z"/><path class="b" d="M762.33,229.53v-1.27c0-12.16,8.34-16.28,18.52-16.28,16.09,0,19.13,6.67,19.13,16.18v27.74c0,4.91.29,7.15,1.66,10.2h-12.94c-.87-1.68-1.27-3.75-1.66-5.5h-.21c-3.13,5.5-6.95,6.87-13.42,6.87-9.41,0-12.75-8.03-12.75-15.11,0-9.9,4.04-13.91,13.34-16.46l7.64-2.06c4.02-1.07,5.39-2.66,5.39-6.17,0-4.03-1.76-6.47-6.28-6.47-4.11,0-6.27,2.73-6.27,6.86v1.46h-12.15ZM787.03,239.73c-1.85,1.37-4.12,2.24-5.79,2.64-5.48,1.17-7.64,3.82-7.64,8.53,0,4.03,1.47,7.36,5.1,7.36s8.33-2.35,8.33-8.14v-10.39Z"/><path class="b" d="M809.91,213.36h12.94v6.18h.2c2.83-5.2,7.74-7.56,13.43-7.56,8.42,0,13.43,4.61,13.43,15v39.13h-13.53v-36.38c0-5.29-1.77-7.35-5.77-7.35-4.63,0-7.18,2.85-7.18,8.72v35.01h-13.52v-52.75Z"/><path class="b" d="M886.49,260.51h-.2c-2.94,4.91-6.66,6.97-11.94,6.97-11.1,0-16.17-8.15-16.17-27.75s5.08-27.75,16.17-27.75c5.08,0,8.52,2.08,11.36,6.28h.19v-22.16h13.52v70.01h-12.93v-5.6ZM878.75,257.07c5.97,0,7.15-5.88,7.15-17.34s-1.18-17.35-7.15-17.35-7.05,5.88-7.05,17.35,1.16,17.34,7.05,17.34Z"/><path class="b" d="M273.66,211.35c12.91-24.37,18.51-52.89,15.25-82.37C280.13,49.44,208.54-7.92,128.99.89,49.47,9.65-7.89,81.26.89,160.79c8.78,79.52,80.38,136.89,159.91,128.09,23.42-2.56,44.89-10.62,63.33-22.66.19-.11,82.36,23.94,82.27,23.62-1.21-4.38-32.81-78.36-32.74-78.49ZM150.58,172.93c-2.33,13.75-11.1,21.67-24.75,24.22-4.53.86-9.84,1.24-15.2.86-15.38-1.09-25.14-7.43-28.35-20.63-1.05-4.36-1.18-9.35-1.15-15.17h25.86c-.05,4.27-.09,8.12,1.01,10.92,1.17,2.92,3.7,4.22,7.71,4.25,4.01.02,6.57-1.4,7.91-4.05,1.31-2.58,1.2-7.37-.28-9.86-1.37-2.29-4.1-3.78-6.91-5.05-2.76-1.27-5.77-2.26-8.66-3.32-5.8-2.12-11.27-4.69-15.6-8.26-4.48-3.66-7.55-8.42-8.92-14.99-.72-3.43-.89-7.21-.68-11.07.19-3.72,1.01-7.06,2.04-9.9,3.98-10.77,13.05-17.1,26.61-18.2,6.33-.5,13.03.21,17.94,1.72,8.51,2.62,14.63,8.01,17.37,16.39,1.38,4.25,1.67,9.57,1.61,15.33h-25.02s-.05,0-.07-.03c-.03-5.49.33-11.05-3.9-12.41-2.26-.73-5.35-.5-7.17.23-2,.77-3.07,2.41-3.47,4.68-.45,2.54-.24,5.47.61,7.19.91,1.8,2.55,2.89,4.32,3.82,1.77,1,3.66,1.75,5.59,2.57,1.88.84,3.83,1.67,5.7,2.47,3.84,1.67,7.69,3.2,11.22,5.13,6.99,3.81,12.68,9.06,14.51,18.13.89,4.41.88,10.4.11,15.03ZM211.55,196.29h-51.54v-101.89h25.83v79.47h25.71v22.42Z"/></svg>