<?xml version="1.0" encoding="UTF-8"?><svg id="a" xmlns="http://www.w3.org/2000/svg" viewBox="0 0 145.59 21.61"><defs><style>.b{fill:#231f20;}</style></defs><path class="b" d="M26.32,10.54v.15c0,.48.14.79.68.79.32,0,.62-.2.62-.63,0-.47-.24-.64-.92-.88-.92-.31-1.34-.7-1.34-1.55,0-1,.61-1.51,1.59-1.51.92,0,1.59.39,1.59,1.38v.15h-.99c0-.48-.16-.76-.56-.76-.47,0-.59.3-.59.6s.09.51.53.7l.8.35c.78.34.98.73.98,1.36,0,1.09-.66,1.57-1.78,1.57s-1.63-.55-1.63-1.5v-.21h1.04Z"/><path class="b" d="M29.52,7.17h.99v1.11h.58v.68h-.58v2.09c0,.3.06.42.35.42.08,0,.16,0,.22-.01v.69c-.22.02-.42.04-.65.04-.78,0-.92-.24-.92-1.02v-2.21h-.5v-.68h.5v-1.11Z"/><path class="b" d="M31.54,9.47v-.09c0-.89.61-1.19,1.36-1.19,1.18,0,1.4.49,1.4,1.19v2.03c0,.36.02.52.12.75h-.95c-.06-.12-.09-.27-.12-.4h-.01c-.23.4-.51.5-.98.5-.69,0-.93-.59-.93-1.11,0-.72.3-1.02.98-1.21l.56-.15c.29-.08.39-.19.39-.45,0-.3-.13-.47-.46-.47-.3,0-.46.2-.46.5v.11h-.89ZM33.35,10.21c-.14.1-.3.16-.42.19-.4.08-.56.28-.56.62,0,.3.11.54.37.54s.61-.17.61-.6v-.76Z"/><path class="b" d="M35.26,7.17h.99v1.11h.58v.68h-.58v2.09c0,.3.06.42.35.42.08,0,.16,0,.22-.01v.69c-.22.02-.42.04-.65.04-.78,0-.92-.24-.92-1.02v-2.21h-.5v-.68h.5v-1.11Z"/><path class="b" d="M38.13,10.36v.31c0,.45.12.9.49.9.33,0,.47-.25.52-.72h.89c-.04.9-.47,1.4-1.4,1.4-1.44,0-1.49-1.11-1.49-2.07,0-1.03.2-2,1.54-2,1.16,0,1.42.78,1.42,1.96v.22h-1.96ZM39.14,9.77c-.02-.59-.09-.92-.5-.92s-.51.41-.51.77v.15h1.01Z"/><path class="b" d="M41.81,12.15v-5.13h1.04v4.28h1.83v.85h-2.87Z"/><path class="b" d="M45.18,6.96h.99v.85h-.99v-.85ZM45.18,8.28h.99v3.87h-.99v-3.87Z"/><path class="b" d="M46.9,7.02h.99v1.63h.01c.21-.31.46-.46.83-.46.81,0,1.19.6,1.19,2.03s-.37,2.03-1.19,2.03c-.39,0-.66-.15-.88-.51h-.02v.41h-.95v-5.13ZM48.42,11.49c.43,0,.52-.43.52-1.27s-.09-1.27-.52-1.27-.52.43-.52,1.27.09,1.27.52,1.27Z"/><path class="b" d="M50.55,8.28h.95v.52h.01c.2-.37.48-.62.89-.62.06,0,.12,0,.18.01v.95c-.1,0-.21-.01-.31-.01-.35,0-.73.18-.73.7v2.32h-.99v-3.87Z"/><path class="b" d="M53,9.47v-.09c0-.89.61-1.19,1.36-1.19,1.18,0,1.4.49,1.4,1.19v2.03c0,.36.02.52.12.75h-.95c-.06-.12-.09-.27-.12-.4h-.01c-.23.4-.51.5-.98.5-.69,0-.93-.59-.93-1.11,0-.72.3-1.02.98-1.21l.56-.15c.29-.08.4-.19.4-.45,0-.3-.13-.47-.46-.47-.3,0-.46.2-.46.5v.11h-.89ZM54.81,10.21c-.14.1-.3.16-.42.19-.4.08-.56.28-.56.62,0,.3.11.54.37.54s.61-.17.61-.6v-.76Z"/><path class="b" d="M56.51,8.28h.95v.52h.02c.2-.37.48-.62.89-.62.06,0,.12,0,.18.01v.95c-.1,0-.21-.01-.31-.01-.34,0-.73.18-.73.7v2.32h-.99v-3.87Z"/><path class="b" d="M59.13,12.67c.09.02.17.02.26.02.37,0,.5-.2.53-.55l-1.09-3.87h1.04l.58,2.67h.01l.5-2.67h.99l-.94,3.61c-.35,1.34-.57,1.52-1.49,1.52h-.4v-.74Z"/><path class="b" d="M26.8,15.54c1.19-.02,1.52.69,1.52,2.03s-.39,2.03-1.52,2.03c-1.19.02-1.52-.69-1.52-2.03s.39-2.03,1.52-2.03ZM26.8,18.94c.4,0,.53-.4.53-1.36s-.13-1.36-.53-1.36c-.49,0-.53.57-.53,1.36s.04,1.36.53,1.36Z"/><path class="b" d="M29.18,16.32h-.5v-.67h.5v-.44c0-.7.39-.93,1.03-.93.18,0,.35,0,.53.02v.7c-.06,0-.13,0-.19,0-.28,0-.38.09-.38.31v.34h.58v.67h-.58v3.19h-.99v-3.19Z"/><path class="b" d="M35.46,20.14l-.61-.63c-.09.03-.2.06-.32.08-.11.01-.23.02-.37.02-1.55,0-1.75-1.11-1.75-2.67s.19-2.67,1.75-2.67,1.75,1.11,1.75,2.67c0,.87-.06,1.6-.4,2.08l.55.56-.61.55ZM34.16,18.85c.61,0,.71-.52.71-1.9s-.1-1.91-.71-1.91-.71.53-.71,1.91.1,1.9.71,1.9Z"/><path class="b" d="M38.58,19.06h-.01c-.21.38-.57.55-.99.55-.62,0-.98-.34-.98-1.1v-2.87h.99v2.67c0,.39.13.54.42.54.34,0,.52-.21.52-.64v-2.57h.99v3.87h-.95v-.45Z"/><path class="b" d="M41.15,17.73v.31c0,.45.12.9.49.9.33,0,.47-.25.52-.73h.89c-.04.9-.47,1.4-1.4,1.4-1.44,0-1.5-1.11-1.5-2.07,0-1.03.2-2,1.54-2,1.16,0,1.42.78,1.42,1.96v.22h-1.96ZM42.16,17.14c-.02-.59-.09-.92-.5-.92s-.51.41-.51.77v.15h1.01Z"/><path class="b" d="M44.59,17.73v.31c0,.45.12.9.49.9.33,0,.47-.25.53-.73h.89c-.04.9-.47,1.4-1.4,1.4-1.44,0-1.5-1.11-1.5-2.07,0-1.03.2-2,1.54-2,1.16,0,1.42.78,1.42,1.96v.22h-1.96ZM45.61,17.14c-.02-.59-.09-.92-.5-.92s-.51.41-.51.77v.15h1.01Z"/><path class="b" d="M47.18,15.64h.95v.45h.01c.21-.38.57-.55.98-.55.62,0,.98.34.98,1.1v2.87h-.99v-2.67c0-.39-.13-.54-.42-.54-.34,0-.53.21-.53.64v2.57h-.99v-3.87Z"/><path class="b" d="M51.6,18.24v.13c0,.34.18.56.52.56.3,0,.5-.15.5-.46,0-.25-.17-.37-.36-.44l-.7-.25c-.55-.19-.83-.53-.83-1.08,0-.64.4-1.17,1.42-1.17.9,0,1.32.4,1.32,1.1v.16h-.89c0-.39-.11-.58-.44-.58-.25,0-.47.14-.47.42,0,.19.1.34.43.45l.6.2c.62.21.86.52.86,1.11,0,.81-.6,1.22-1.44,1.22-1.11,0-1.42-.49-1.42-1.23v-.14h.89Z"/><path class="b" d="M54.18,14.38h.99v5.13h-.99v-5.13Z"/><path class="b" d="M55.89,16.83v-.09c0-.89.61-1.19,1.36-1.19,1.18,0,1.4.49,1.4,1.19v2.03c0,.36.02.52.12.75h-.95c-.06-.12-.09-.27-.12-.4h-.02c-.23.4-.51.5-.98.5-.69,0-.94-.59-.94-1.11,0-.73.3-1.02.98-1.21l.56-.15c.29-.08.4-.19.4-.45,0-.3-.13-.47-.46-.47-.3,0-.46.2-.46.5v.11h-.89ZM57.7,17.58c-.14.1-.3.16-.42.19-.4.09-.56.28-.56.63,0,.3.11.54.37.54s.61-.17.61-.6v-.76Z"/><path class="b" d="M59.38,15.64h.95v.45h.01c.21-.38.57-.55.98-.55.62,0,.98.34.98,1.1v2.87h-.99v-2.67c0-.39-.13-.54-.42-.54-.34,0-.53.21-.53.64v2.57h-.99v-3.87Z"/><path class="b" d="M65,19.1h-.01c-.22.36-.49.51-.88.51-.81,0-1.19-.6-1.19-2.03s.37-2.03,1.19-2.03c.37,0,.62.15.83.46h.01v-1.62h.99v5.13h-.95v-.41ZM64.43,18.85c.44,0,.52-.43.52-1.27s-.09-1.27-.52-1.27-.52.43-.52,1.27.09,1.27.52,1.27Z"/><path class="b" d="M20.06,15.5c.95-1.79,1.36-3.88,1.12-6.04C20.54,3.63,15.29-.58,9.46.07,3.63.71-.58,5.96.07,11.79c.64,5.83,5.89,10.04,11.72,9.39,1.72-.19,3.29-.78,4.64-1.66.01,0,6.04,1.76,6.03,1.73-.09-.32-2.41-5.75-2.4-5.75ZM11.04,12.68c-.17,1.01-.81,1.59-1.81,1.78-.33.06-.72.09-1.11.06-1.13-.08-1.84-.54-2.08-1.51-.08-.32-.09-.69-.08-1.11h1.9c0,.31,0,.6.07.8.09.21.27.31.57.31.29,0,.48-.1.58-.3.1-.19.09-.54-.02-.72-.1-.17-.3-.28-.51-.37-.2-.09-.42-.17-.63-.24-.43-.16-.83-.34-1.14-.61-.33-.27-.55-.62-.65-1.1-.05-.25-.06-.53-.05-.81.01-.27.07-.52.15-.73.29-.79.96-1.25,1.95-1.33.46-.04.96.02,1.32.13.62.19,1.07.59,1.27,1.2.1.31.12.7.12,1.12h-1.83s0,0,0,0c0-.4.02-.81-.29-.91-.17-.05-.39-.04-.53.02-.15.06-.23.18-.25.34-.03.19-.02.4.04.53.07.13.19.21.32.28.13.07.27.13.41.19.14.06.28.12.42.18.28.12.56.23.82.38.51.28.93.66,1.06,1.33.06.32.06.76,0,1.1ZM15.51,14.39h-3.78v-7.47h1.89v5.83h1.89v1.64Z"/><path class="b" d="M106,9.29c-.07.02-.24.07-.35.08.21-.2.33-.45.33-.66-.1.03-.28.1-.44.14.33-.27.5-.59.42-1.02-.1.05-.24.13-.38.19.28-.43.28-.82.16-1.04-.13.12-.28.26-.44.35.1-.5.1-.83-.11-1.05-.22.41-.4.71-.7,1.07.02-.33-.01-.75-.23-.96,0,0-.06.46-.23.61-.04-.46-.18-.7-.39-.95,0,0-.01.47-.14.77-.11-.4-.31-.7-.57-.99.02.87-.23,2.52-.93,3.63-.08.66-.15,1.64-1.22,2.23-.15-.11-.43-.25-.81-.23-.1-.5.55-.95,1.1-1.3.57-.37.81-.67.8-1.16-.01-.53-.37-.75-.75-.77-.53-.02-.95.45-1.05.65-.15.07-.6.21-.79.26-.21.05-.44.14-.58.26.09.05.33.07.43.06.18-.02.75-.13,1.29-.2.2.11.52.29.18.52-.46.3-.66.37-1.31.71-1.03.54-.7,1.9-.44,2,0,.46.41,1.29.69,1.57.12.58-.04,1.44-.22,1.79-.14-.35-.39-1.16-.56-1.63.17-.9-.1-1.29-.29-1.44-.19-.16-.49-.11-.68.2.3-.03.4.35.39.74,0,.47-.13.85-.46.85.03.41.46.52.68.32.03.09.21.62.37,1.1.1.28.19.54.26.67.07.15.57.17.63,0,.08-.23.14-.4.27-.67h0c.1-.21.23-.47.43-.85.14.23.32.6.42.85.05.11.08.21.08.25.04.38.02,1.75-.08,2.57-1.13-.31-1.45.25-1.35.65.16-.18.37-.15.51-.06-.03.3.05.52.36.61.32-.85,1.48-.67,1.59-.59,0-.16.16-.58-.44-.66.02-.74.1-1.64.13-1.83.03-.19.05-.31-.04-.6-.03-.09-.06-.2-.09-.33h0c-.08-.3-.16-.69-.16-1.11.1.1.35.18.52.15.13.56.32.39.42.63.05.12.06.23.08.33.01.1.03.18.08.25.4.01.74-.08.98-.25.07-.05.14-.11.19-.18-.1-.59-.27-.89-.58-1.25-.08-.49-.31-.93-.62-1.32.39-.13.79-.45,1-.67.19-.01.4-.17.42-.48.11-.01.2-.02.29-.04,0-.08-.03-.21-.04-.29.15,0,.28,0,.42-.02-.04-.11-.09-.23-.13-.31.14,0,.32-.01.47-.02-.08-.14-.14-.27-.18-.4.17-.02.42-.06.63-.11-.07-.07-.14-.15-.26-.26.55-.16.79-.54.82-.71-.08,0-.25.04-.35.03.31-.18.51-.43.54-.69Z"/><path class="b" d="M98.33,10.52h-6.93v2.56s.06.04.09.07v-2.52h6.89v2.34s.05.06.07.1v-2.55h-.13Z"/><path class="b" d="M94.91,19.34c-3.06-1.14-3.45-3.65-3.46-4.79,0,0,0,0-.01,0,0-.03,0-.05.01-.08,0-.25.02-.41.03-.47,0-.16-.03-.29-.06-.38,0-.02-.02-.04-.03-.06v1.18c0,1.32.49,2.46,1.44,3.39.84.81,1.78,1.19,2.04,1.29l.04.02.04-.02c.27-.1,1.21-.48,2.05-1.29.96-.92,1.44-2.07,1.44-3.39v-.22s-.05.06-.08.09c-.03.59-.14,1.51-.53,2.21-.47.97-1.2,1.77-2.93,2.52Z"/><path class="b" d="M93.69,8.25c-.48.03-.94.65-.75,1.35-.07.03-.28.02-.35-.12-.05.23-.52.49-.86.46.19-.2.31-.66.68-.9.37-.24.54-.41.67-.82-.17.08-1.06.31-1.31.04.59-.09,1.28-.41,1.62-.63l-.14-.14c-.37.21-.86.38-1.11.46-.09-.73.61-.71.66-.51.29-.34.09-.83-.13-.89.22-.58,0-.94-.19-1.16-.04.62-.74.72-.82,1.2-.03-.38-.05-1.4-.08-1.9-.05-.93-1.22-1.25-1.4-1.25-.77.04-.84-.06-.82-.42-.39.44-.26.83.07,1.02-.05.26-.47.47-.73.53.62.58,1.34.23,1.68-.09.03-.02.05-.04.08-.07.12.22.21.62.21.85-.58-.03-.69.42-.69.58.74-.3.82,1.11,1.01,1.34-.19-.01-.52-.45-1.01-.48-.59-.04-.8.28-1.04.27.04.42.55.65.88.7-.17.43-.02.72.33.82,0-.39.49-.51,1.02-.2.64.37.96.4,1.48.24-.08.19-.32.2-.6.48-.39.39-.41.9-.85,1.08.52.25,1.3-.1,1.41-.3.22.14.5.06.57-.08-.35-.78.24-1.24.48-1.23,0,0,.1-.23,0-.22h0ZM90.99,7.93c-.26-.11-.66-.17-.89.14-.12-.21.06-.53.17-.63-.57,0-.9-.16-.98-.34.21-.12.74-.31,1.18,0,.3.22.45.33.81.45.13-.13.08-.07.12-.11-.29-.2-.42-1.76-1-1.82.08-.2.38-.18.62-.12.02-.35-.13-.92-.34-1.26.33-.18.56.01.68.43.12.44-.02,1.54.27,2.53l.18-.17c-.09-.58.55-.79.68-1.08.06.39-.03.56-.13.7.23.03.33.25.3.41-.55-.08-.87.47-.75.91-.41.09-.69.02-.91-.07h0ZM89.42,3.6c.44.21.58-.18,1.39.35-.54.17-.95.84-1.56.67.44-.22.39-.54.64-.69-.16-.02-.48-.09-.47-.32h0Z"/><path class="b" d="M99.36,6.12c0-.87-.03-1.58-.04-1.81.03,0,.07.02.11.03.62.22.77.97,2.05.12-.69.08-.72-.5-1.04-.52.48-.27.51-.89.51-.89-.4.32-1.33.34-1.51.45-.24.15-.54.32-.75.43-.54.29-.16,1.88-.22,2.46-.29-.86-.87-.74-1.18-1.23-.23.41.01,1.11.11,1.31-.33.27-.24.77-.16.9.28-.2.72-.15.86.19-.37.23-1,.27-1.42-.14l-.15.17c.3.4,1.05.55,1.61.23,0,.09-.02.19-.06.3-.29.15-.67.24-1.1.09.06.44.56.76,1.03.89-.16.13-.36.18-.5.16.09.25.14.59-.05.85-.24-.16-.36-.32-.45-.93-.09-.61-.53-1.23-.87-1.36-.02.22-.02.12.02.26.91.67.4,1.87,1.34,2.3.35-.4.35-.53.3-.91.34-.09.6-.38.69-.6-.32.15-.84-.12-.98-.33.56-.02,1.08-.44,1.61-1,.48-.5,1.11-.42,1.06-.03.33-.05.46-.5.35-.79.48-.15.86-.51.91-1.07-.65.32-1.47-.21-2.08.44h0ZM100.13,6.59c.26.21.17.51.11.58-.22-.39-.94-.25-1.65.54-.05.06-.12.13-.19.2.06-.95-.73-.97-.95-.87.02-.27.19-.46.29-.49-.23-.26-.28-.6-.31-.85.38.17.95.61,1.04,1.38l.25-.17c-.07-1.35-.06-1.34-.07-2.25,0-.13,0-.43.41-.39.02.34.07,1.24.05,2.49h.15c.13-.35.59-.76,1.13-.72.37.02.5.02.71-.08-.17.42-.8.6-.96.63h0ZM99.07,4.03c.26-.19.43-.27.56-.35.23,0,.61-.02.85-.14-.24.3-.27.41-.67.45.51.05.73.5.98.58-.86.26-.94-.59-1.73-.54h0Z"/><path class="b" d="M95.86,9.07s-.08.02-.11.06c-.05,0-.1-.02-.15-.02v-.28c.05-.02.08-.07.08-.13,0-.08-.06-.14-.14-.14s-.14.06-.14.14c0,.05.03.1.07.12v.27s-.1,0-.15-.01c-.02-.05-.07-.08-.12-.08-.08,0-.14.06-.14.14,0,.07.06.14.14.14.05,0,.09-.02.12-.07.05,0,.11.01.16.02v.4s-.08.07-.08.12c0,.08.06.14.14.14s.14-.06.14-.14c0-.06-.03-.11-.08-.13v-.39c.05,0,.09.01.14.02.02.05.07.09.13.09.08,0,.14-.06.14-.14s-.06-.14-.14-.14h0Z"/><path class="b" d="M94.65,8.99c-.06,0-.11.03-.13.08-.05,0-.1,0-.15.01v-.27s.07-.07.07-.12c0-.08-.06-.14-.14-.14s-.14.06-.14.14c0,.06.03.11.08.13v.28s-.1.01-.15.02c-.02-.03-.06-.06-.11-.06-.08,0-.14.06-.14.14s.06.14.14.14c.06,0,.11-.04.13-.09.04,0,.08-.02.13-.02v.39s-.08.07-.08.13c0,.08.06.14.14.14s.14-.06.14-.14c0-.05-.03-.1-.08-.12v-.4s.1-.01.15-.02c.02.04.07.07.12.07.08,0,.14-.06.14-.14,0-.08-.06-.14-.14-.14h0Z"/><path class="b" d="M96.5,10.18c-.08-.56-.29-2.13-.31-2.66h-.24c0,.1.01.22.02.36-.29-.08-.66-.14-1.05-.14s-.76.06-1.05.14c.01-.14.02-.26.03-.35h-.24c-.02.52-.23,2.09-.31,2.65-.15.06-.24.2-.24.46,0,0,1.31.02,1.81.02s1.81-.02,1.81-.02c0-.26-.09-.4-.23-.46h0ZM94.92,10.17c-.21.4-.59.38-.93.16-.13-.09-.27-.15-.4-.17.06-.39.15-1.12.22-1.75.43-.2.97-.24,1.1.26.13-.5.67-.45,1.1-.26.07.62.17,1.36.22,1.75-.13.02-.27.08-.4.17-.33.22-.72.23-.93-.16h0Z"/><path class="b" d="M102.24,20.1c-.15.05-.33.07-.61.07h-.34c-1.17-.02-2.38-.37-3.11-1.13,1.02-1.03-.18-1.87-.83-1-.2.27-.36.46-.5.73-.11.21-.03.43.23.75.14.18.48.46.76.64h-5.85c.28-.18.63-.46.77-.64.25-.33.34-.54.22-.75-.14-.26-.3-.46-.5-.73-.65-.87-1.85-.03-.82,1-.74.75-1.94,1.1-3.11,1.13h-.32c-.27,0-.46-.03-.61-.07-.24-.06-.3.05-.17.46.09.28.16.73.19,1.04h14.58c.03-.31.1-.77.19-1.04.13-.42.08-.52-.17-.46h0ZM97.68,18.08c.19-.26.47-.19.58.03.12.23-.06.51-.3.73-.33-.36-.37-.65-.29-.75h0ZM97.19,19.28c-.12-.17-.16-.26-.1-.43.06-.15.18-.29.31-.48.2.8,1.4,1.55,2.29,1.81h-1.41c-.36-.2-.82-.52-1.09-.9h0ZM91.57,18.11c.12-.21.39-.28.58-.03.08.11.05.4-.29.75-.24-.22-.42-.5-.3-.73h0ZM92.42,18.37c.13.19.25.33.31.48.06.16.02.26-.1.43-.27.38-.73.7-1.1.9h-1.41c.89-.25,2.08-1.01,2.29-1.81h0ZM101.96,21.38h-14.07c-.06-.45-.15-.73-.23-.98h14.52c-.08.24-.16.53-.22.98h0Z"/><path class="b" d="M89.8,21.06s0,0,0,0l.04.1s0,.02,0,.02c0,0-.01,0-.01,0,0,0,.01,0,.03,0h.16s.04,0,.04,0c0,0,0,0,0,0,0,0-.02,0-.04,0-.02,0-.04-.02-.07-.09-.05-.13-.19-.47-.21-.51,0-.02-.01-.03-.02-.03,0,0-.01.01-.02.03l-.21.52s-.03.07-.07.07c0,0-.02,0-.03,0s-.01,0-.01,0c0,0,0,0,.02,0h.19s.01,0,.01,0c0,0,0,0-.01,0h-.01s-.03,0-.03-.03c0,0,0-.03.01-.05l.02-.05s0,0,0,0h.24ZM89.57,21.02s0,0,0,0l.1-.28s0,0,0,0c0,0,0,0,0,0l.1.28s0,0,0,0h-.21Z"/><path class="b" d="M90.21,20.94c0,.12.03.18.07.22.06.05.14.06.18.06.05,0,.12,0,.17-.06.07-.06.08-.16.08-.25v-.09c0-.13,0-.15,0-.18,0-.03,0-.04.03-.05.01,0,.02,0,.02,0,0,0,.01,0,.01,0s0,0-.02,0c-.03,0-.08,0-.1,0,0,0-.05,0-.09,0-.01,0-.02,0-.02,0s0,0,.02,0c0,0,.02,0,.03,0,.03,0,.03.02.04.05,0,.03,0,.05,0,.18v.1c0,.09,0,.16-.05.21-.03.03-.08.05-.12.05-.03,0-.07,0-.1-.03-.04-.03-.07-.09-.07-.21v-.12c0-.13,0-.15,0-.18,0-.03,0-.04.03-.05.01,0,.02,0,.03,0,0,0,.01,0,.01,0s0,0-.02,0c-.03,0-.08,0-.1,0-.03,0-.08,0-.12,0-.01,0-.02,0-.02,0s0,0,.02,0c.01,0,.03,0,.03,0,.03,0,.03.02.04.05,0,.03,0,.05,0,.18v.12h0Z"/><path class="b" d="M91.08,20.96c0,.08,0,.14,0,.18,0,.02,0,.04-.02.04,0,0-.02,0-.03,0,0,0-.01,0-.01,0,0,0,0,0,.02,0h.1s.12,0,.18,0c.15,0,.24-.06.28-.1.05-.05.09-.13.09-.23s-.04-.17-.08-.21c-.09-.09-.23-.09-.33-.09-.05,0-.1,0-.13,0-.02,0-.08,0-.12,0-.01,0-.02,0-.02,0s0,0,.01,0c.01,0,.03,0,.03,0,.03,0,.03.02.04.05,0,.03,0,.05,0,.18v.15h0ZM91.18,20.8v-.17s0-.02,0-.02c0,0,.04,0,.05,0,.06,0,.16,0,.24.08.03.03.08.1.08.21,0,.09-.02.16-.07.21-.05.04-.11.06-.19.06-.06,0-.1-.02-.11-.03,0-.01,0-.04,0-.07,0-.02,0-.08,0-.17v-.1h0Z"/><path class="b" d="M92.22,21.06s0,0,0,0l.04.1s0,.02,0,.02c0,0-.01,0-.01,0,0,0,.01,0,.03,0h.16s.04,0,.04,0c0,0,0,0-.01,0-.01,0-.02,0-.04,0-.02,0-.04-.02-.07-.09-.05-.13-.19-.47-.21-.51-.01-.02-.02-.03-.02-.03,0,0-.01.01-.02.03l-.21.52s-.03.07-.07.07c0,0-.02,0-.03,0,0,0,0,0,0,0,0,0,0,0,.02,0h.19s.01,0,.01,0c0,0,0,0-.01,0h-.01s-.03,0-.03-.03c0,0,0-.03.01-.05l.02-.05s0,0,0,0h.24ZM92,21.02s0,0,0,0l.1-.28s0,0,0,0c0,0,0,0,0,0l.1.28s0,0,0,0h-.21Z"/><path class="b" d="M93.04,20.66s.04-.06.06-.07c.01,0,.02,0,.03,0s.01,0,.01,0c0,0,0,0-.01,0-.03,0-.06,0-.08,0-.02,0-.05,0-.08,0-.01,0-.02,0-.02,0,0,0,0,0,.01,0,0,0,.02,0,.03,0,0,0,.01,0,.01.01,0,0,0,.02,0,.03-.01.02-.09.14-.11.17-.03-.06-.07-.12-.11-.18,0,0,0-.02,0-.02,0,0,0,0,.01-.01,0,0,.02,0,.02,0,0,0,.01,0,.01,0s0,0-.02,0c-.03,0-.08,0-.09,0-.04,0-.11,0-.13,0-.01,0-.02,0-.02,0,0,0,0,0,0,0,0,0,.02,0,.03,0,.03,0,.05.03.07.06l.14.24-.16.23s-.04.06-.07.06c-.01,0-.02,0-.03,0,0,0-.01,0-.01,0,0,0,0,0,.01,0h.18s.02,0,.02,0c0,0,0,0,0,0,0,0-.02,0-.02,0,0,0-.02,0-.02-.01,0,0,0-.02.01-.03l.13-.2c.04.06.08.15.13.23,0,.01,0,.02,0,.02,0,0-.01,0-.01,0,0,0,0,.01.03.01h.18s.01,0,.01,0c0,0,0,0-.01,0,0,0-.02,0-.03,0-.02,0-.04-.02-.05-.04-.02-.03-.16-.25-.18-.29l.14-.19h0Z"/><path class="b" d="M94.4,21.06s0,0,0,0l.04.1s0,.02,0,.02c0,0-.01,0-.01,0,0,0,.01,0,.02,0h.16s.04,0,.04,0c0,0,0,0-.01,0,0,0-.02,0-.03,0-.02,0-.04-.02-.07-.09-.05-.13-.19-.47-.21-.51,0-.02-.01-.03-.02-.03,0,0-.01.01-.02.03l-.21.52s-.03.07-.07.07c0,0-.02,0-.02,0,0,0-.01,0-.01,0,0,0,0,0,.02,0h.19s.01,0,.01,0c0,0,0,0-.01,0h-.01s-.03,0-.03-.03c0,0,0-.03.01-.05l.02-.05s0,0,0,0h.24ZM94.17,21.02s0,0,0,0l.1-.28s0,0,0,0c0,0,0,0,0,0l.11.28s0,0,0,0h-.21Z"/><path class="b" d="M94.91,20.96c0,.08,0,.14,0,.18,0,.02,0,.04-.03.04,0,0-.02,0-.03,0,0,0-.01,0-.01,0,0,0,0,0,.02,0h.24s.02,0,.02,0c0,0,0,0-.01,0-.01,0-.03,0-.04,0-.02,0-.03-.02-.03-.04,0-.04,0-.1,0-.18v-.34h.1c.07,0,.1.03.1.05h0s0,.02,0,.02c0,0,0,0,0-.01,0-.02,0-.08,0-.1,0-.01,0-.02,0-.02,0,0-.03,0-.08,0h-.33s-.06,0-.08,0c-.02,0-.03-.01-.04-.01,0,0,0,0-.01.02,0,0-.02.08-.02.09,0,.01,0,.02,0,.02,0,0,0,0,.01-.01,0,0,0-.02.02-.03.01-.02.03-.02.08-.03h.12s0,.34,0,.34h0Z"/><path class="b" d="M96.36,20.9s0,0,0,0c.01,0,.1,0,.12,0,.03,0,.04.02.04.03,0,.01,0,.02,0,.03,0,0,0,.01,0,.01,0,0,0-.01,0-.02,0,0,0-.04,0-.06,0-.03,0-.05,0-.05,0,0,0,0,0,0,0,0,0,0-.01,0,0,.01-.02.01-.04.01-.01,0-.02,0-.04,0h-.11s0,0,0,0v-.21s0-.01,0-.01h.13s.05.02.06.03c0,.01,0,.02,0,.03,0,.01,0,.01,0,.01,0,0,0,0,0-.01,0,0,0-.06,0-.07,0-.02,0-.03,0-.04,0,0,0,0,0,0s0,0-.01,0c0,0-.02,0-.03,0-.02,0-.19,0-.22,0-.03,0-.08,0-.12,0-.01,0-.02,0-.02,0s0,0,.01,0c.01,0,.03,0,.03,0,.03,0,.03.02.04.05,0,.03,0,.05,0,.18v.15c0,.08,0,.14,0,.18,0,.02,0,.04-.02.04,0,0-.02,0-.03,0-.01,0-.01,0-.01,0,0,0,0,0,.02,0h.23s.02,0,.02,0c0,0,0,0-.01,0-.01,0-.03,0-.04,0-.03,0-.03-.02-.03-.04,0-.03,0-.1,0-.18v-.07h0Z"/><path class="b" d="M96.9,20.96c0,.08,0,.15,0,.18,0,.02,0,.04-.02.04,0,0-.02,0-.03,0-.01,0-.01,0-.01,0,0,0,0,0,.02,0h.23s.02,0,.02,0c0,0,0,0-.01,0-.01,0-.03,0-.04,0-.02,0-.03-.02-.03-.04,0-.04,0-.1,0-.18v-.15c0-.13,0-.15,0-.18,0-.03,0-.04.03-.05,0,0,.02,0,.02,0s.01,0,.01,0c0,0,0,0-.02,0-.03,0-.08,0-.1,0s-.08,0-.11,0c-.01,0-.02,0-.02,0,0,0,0,0,.01,0,0,0,.02,0,.03,0,.02,0,.03.02.03.05,0,.03,0,.05,0,.18v.15h0Z"/><path class="b" d="M97.39,20.96c0,.08,0,.14,0,.18,0,.02,0,.04-.02.04,0,0-.02,0-.03,0,0,0-.01,0-.01,0,0,0,0,0,.02,0h.11s.12,0,.18,0c.15,0,.24-.06.28-.1.05-.05.09-.13.09-.23s-.04-.17-.08-.21c-.09-.09-.23-.09-.33-.09-.05,0-.1,0-.13,0-.02,0-.08,0-.12,0-.01,0-.02,0-.02,0s0,0,.01,0,.02,0,.03,0c.03,0,.03.02.04.05,0,.03,0,.05,0,.18v.15h0ZM97.5,20.8v-.17s0-.02.01-.02c0,0,.04,0,.05,0,.07,0,.16,0,.24.08.03.03.08.1.08.21,0,.09-.02.16-.07.21-.05.04-.1.06-.19.06-.06,0-.1-.02-.11-.03,0-.01,0-.04,0-.07,0-.02,0-.08,0-.17v-.1h0Z"/><path class="b" d="M98.28,20.96c0,.08,0,.14,0,.18,0,.02,0,.04-.02.04,0,0-.02,0-.03,0,0,0-.01,0-.01,0,0,0,0,0,.02,0h.1s.11,0,.23,0c.03,0,.04,0,.04-.02,0-.02,0-.07,0-.09,0,0,0-.02,0-.02,0,0,0,0,0,.01,0,.03-.02.05-.04.06-.02,0-.06,0-.08,0-.08,0-.1-.01-.1-.07v-.2s0,0,0,0c.02,0,.1,0,.12,0,.03,0,.04.01.05.03,0,.01,0,.02,0,.03,0,0,0,0,0,0,0,0,0,0,0-.02,0,0,0-.04,0-.06,0-.04,0-.06,0-.06,0,0,0,0,0,0,0,0,0,0-.01.01,0,0-.02.01-.04.01-.02,0-.11,0-.13,0,0,0,0,0,0-.01v-.21s0,0,0,0c.02,0,.1,0,.12,0,.04,0,.05.02.06.03,0,0,0,.02,0,.03,0,0,0,.01,0,.01,0,0,0,0,0-.01,0-.01,0-.05,0-.05,0-.04,0-.05,0-.05,0,0,0,0,0,0,0,0-.01,0-.01,0,0,0-.02,0-.04,0-.02,0-.18,0-.21,0-.02,0-.07,0-.12,0-.01,0-.02,0-.02,0s0,0,.01,0c.01,0,.03,0,.03,0,.03,0,.03.02.04.05,0,.03,0,.05,0,.18v.15h0Z"/><path class="b" d="M99.04,20.82c0-.13,0-.15,0-.18,0-.03,0-.04.03-.05.01,0,.03,0,.03,0,0,0,.01,0,.01,0s0,0-.02,0c-.03,0-.09,0-.11,0-.02,0-.07,0-.11,0-.01,0-.02,0-.02,0s0,0,.01,0c.01,0,.02,0,.03,0,.03,0,.03.02.04.05,0,.03,0,.05,0,.18v.15c0,.08,0,.14,0,.18,0,.02,0,.04-.02.04,0,0-.02,0-.03,0,0,0-.01,0-.01,0,0,0,0,0,.02,0h.1c.07,0,.12,0,.24,0,.04,0,.05,0,.05-.02,0-.02.01-.09.01-.1s0-.01,0-.01c0,0,0,0,0,.01,0,.02-.01.04-.02.05-.02.02-.05.02-.1.02-.06,0-.09,0-.1-.02-.02-.02-.02-.07-.02-.18v-.15h0Z"/><path class="b" d="M99.56,20.96c0,.08,0,.15,0,.18,0,.02,0,.04-.02.04,0,0-.02,0-.03,0,0,0-.01,0-.01,0,0,0,0,0,.02,0h.24s.02,0,.02,0c0,0,0,0-.02,0s-.03,0-.04,0c-.03,0-.03-.02-.03-.04,0-.04,0-.1,0-.18v-.15c0-.13,0-.15,0-.18,0-.03,0-.04.03-.05.01,0,.02,0,.03,0,0,0,.01,0,.01,0,0,0,0,0-.02,0-.03,0-.08,0-.1,0-.02,0-.07,0-.11,0-.01,0-.02,0-.02,0,0,0,0,0,.01,0,.01,0,.02,0,.03,0,.02,0,.03.02.03.05,0,.03,0,.05,0,.18v.15h0Z"/><path class="b" d="M100.13,21.21s.09,0,.13-.03c.06-.04.08-.1.08-.14,0-.08-.04-.14-.14-.21l-.02-.02c-.07-.05-.09-.08-.09-.12,0-.05.04-.09.1-.09.05,0,.08.03.09.04.02.02.02.05.02.05,0,0,0,.01,0,.01,0,0,0,0,0-.02,0-.07,0-.09,0-.1,0,0,0,0-.01-.01-.02,0-.06-.01-.11-.01-.12,0-.19.07-.19.16,0,.07.03.13.12.2l.04.03c.07.05.08.09.08.14s-.04.09-.11.09c-.05,0-.1-.02-.12-.08,0-.02,0-.03,0-.04,0,0,0-.02,0-.02,0,0,0,0,0,.02,0,.01,0,.06,0,.11,0,.02,0,.02.02.03.03.02.07.02.12.02h0Z"/><path class="b" d="M97.63,4.07c0-.12-.22-.22-.28-.22-.1,0-.22.2-.35.33-.11-.6-.05-.86,0-1.12.25.46.59.56.77.53-.61-.49-.5-.93-.69-.95-.1-.01-.18,0-.24,0-.21,0-.24.41-.27.6-.14-.26-.27-.47-.51-.77-.22-.57-.5-.43-.78-.69.22.33.04.53.54.77.13.13.28.32.39.48-.08.11-.14.17-.22.25-.06.09-.09.45-.29.72.29-.13.4-.3.5-.47.91.68.17,2.44-.04,2.82-.2-.14-.46-.21-.69-.25l-.02-.08-.21-.69h.1c.11,0,.14-.08.12-.14l.63.19.28.09-.17-.23-.29-.4.29-.4.17-.24-.28.09-.56.17c-.04-.13-.14-.19-.26-.21l.19-.64.08-.27-.23.17-.4.29-.4-.29-.23-.17.08.27.19.64c-.11.02-.22.08-.26.21l-.56-.17-.28-.09.17.24.29.4-.29.4-.17.23.28-.09.63-.19c-.02.06,0,.14.12.14h.1l-.21.69-.02.08c-.24.04-.5.12-.7.26-.61-1.19-.44-2.39.07-2.79,0,.25.21.59.32.66-.07-.26.05-.72-.09-.84-.09-.08-.24-.12-.39-.12.1-.17.25-.39.49-.71.36-.17.47-.59.55-.8-.39.15-.68.35-.74.68-.14.18-.29.4-.46.65,0-.31-.16-.42-.39-.43-.66.14-.61.61-1.18.94.39.14.99-.71,1.2-.62.03.52-.09.93-.09,1.22-.1-.11-.15-.18-.23-.2-.08-.01-.3,0-.45.17-.04.26-.03.76-.28,1.35.37-.34.54-1,.6-1.19.09.13.2.41.22.66.04.48.34,1.26.59,1.64-.07.13-.09.28-.06.44-.19.14-.21.34-.15.48.07.14.26.24.48.15l.07-.03c.23-.1.67-.28,1.2-.28s.96.18,1.2.28l.07.03c.22.09.41,0,.48-.15.07-.13.05-.33-.15-.48.03-.18,0-.34-.08-.48h0c.45-.63.48-1.86.86-2.21.03.43.26.79.49.83-.18-.3-.18-.89-.17-1.16h0ZM95.56,4.65l.33-.1-.16.22-.04.06.04.06.16.22-.42-.13c.04-.09.07-.18.09-.33h0ZM93.96,5.11l.16-.22.04-.06-.04-.06-.16-.22.33.1c.02.14.05.24.09.33l-.42.13h0ZM95.28,5h-.26l.03-.47c.39-.18.36.19.23.47h0ZM95.2,5.79l-.22-.16-.06-.04-.06.04-.22.16.14-.47h.27l.15.47h0ZM94.87,3.99l.06.04.06-.04.23-.17-.13.44s0,0-.01,0c-.02-.05-.08-.09-.14-.09s-.12.04-.14.09c0,0,0,0-.01,0l-.13-.44.23.17h0ZM94.57,5c-.13-.28-.17-.64.23-.47l.03.47h-.26ZM94.92,5.83l.31.23c-.13-.01-.25-.01-.31-.01s-.18,0-.31.01l.31-.23h0ZM93.63,7.47l-.07.03c-.09.04-.16,0-.18-.04-.02-.05-.01-.13.11-.2.01,0,.03-.02.05-.03l.22.18s-.09.04-.13.05h0ZM94.39,7.22l-.23-.23c.19-.05.39-.08.59-.09l.14.27c-.18,0-.34.02-.49.05h0ZM95.67,7.27l-.14-.31c.2.04.4.1.57.17l.08.32c-.13-.05-.3-.12-.52-.18h0ZM94.92,6.66c-.44,0-.93.1-1.31.27,0-.08.04-.16.09-.22.22-.26.79-.36,1.22-.36s1,.09,1.22.36c.05.06.08.14.09.22-.38-.17-.86-.27-1.3-.27h0Z"/><path class="b" d="M91.92,14.09c-.17,0-.28,0-.28,0-.04.48-.02.92.04,1.33.17-.28.34-.57.34-.77,0-.21-.06-.39-.1-.56Z"/><path class="b" d="M92.04,14.09c.05.17.09.35.1.55.01.24-.17.53-.36.84-.02.04-.04.07-.06.11.54,2.64,3.09,3.52,3.09,3.52v-5.01s-1.92,0-2.77,0ZM93.96,17.22c-.13.03-.33.04-.46.04s-.34-.01-.46-.04c.02-.05.03-.13.05-.21-.09,0-.19-.04-.27-.07.04-.14.1-.27.15-.46.17.04.34.05.53.05s.36-.01.53-.05c.05.19.11.32.15.46-.08.03-.18.06-.27.07.02.08.04.15.05.21ZM92.91,16.13c.1-.03.47-.06.58-.06s.49.02.58.06c0,.05.01.12,0,.17-.15.04-.4.06-.59.06s-.44-.02-.59-.06c0-.05,0-.12,0-.17ZM94.33,15.14c-.14.34-.28.69-.32.79-.08-.01-.16-.02-.24-.02.1-.3.21-.72.31-.99.07-.18.38-.1.25.21ZM93.49,14.64c.02-.16.46-.19.38.16-.08.35-.19.75-.27,1.1-.04,0-.07,0-.11,0s-.08,0-.11,0c-.08-.35-.19-.76-.27-1.1-.08-.35.36-.32.38-.16ZM92.91,14.92c.1.27.21.69.31.99-.08,0-.16,0-.24.02-.04-.11-.18-.45-.32-.79-.14-.32.18-.4.25-.21Z"/><path class="b" d="M97.62,14.58v-.13s.12,0,.12,0c.17,0,.25-.16.3-.35-.65,0-3,0-3,0v2.42c.19-.15.38-.26.63-.34v-.53h.25c.01-.59.15-1.01.43-1.29l.08-.08.08.08c.27.28.41.7.42,1.29h.25v.56c.27.11.45.28.59.46.22-.45.38-.97.44-1.58-.01,0-.02,0-.04,0-.25,0-.52-.18-.54-.53Z"/><path class="b" d="M98.2,14.11s-.02,0-.05,0c-.06.28-.19.47-.42.47.02.27.23.42.43.42.02,0,.03,0,.05,0,.02-.28.02-.57,0-.88Z"/><path class="b" d="M96.41,16.31c-.71,0-.99.2-1.38.5v2.32s1.69-.58,2.61-2.21c-.21-.32-.52-.6-1.23-.6ZM96.99,17.24l-.21-.24-.36.32.15.17s.15-.07.29.08c-.1.09-.28.24-.38.33-.13-.16-.04-.3-.04-.3l-.15-.17-.44.4-.14-.17.45-.38-.16-.19s-.06.05-.15.13c-.13-.15-.23-.35-.14-.6.26-.06.44.07.57.22-.09.08-.15.13-.15.13l.17.19.37-.31-.21-.24c.19-.02.36.04.46.15.09.11.14.28.09.47Z"/><path class="b" d="M91.74,12.85c.18.15.25.25.19.75,0,.06.03.18.06.3h6.07c0-.07,0-.13.01-.19,0-.27-.05-.49-.13-.58-.03-.03-.06-.04-.12-.04,0,0,0,0,0,0l-.24.03.13-.21c.13-.2.31-.32.5-.34v-1.8h-6.55v2.01s.04.03.07.04l.02.02ZM95.6,12.61v-.13h-.3c.07-.32.68-.72.96-.81-.02-.34.44-.45.8-.46.45-.01.55.47.55.62,0,.2-.05.64-.3.77-.36.2-.67-.07-.67-.32,0-.27.19-.43.51-.39.33.04.3-.14.06-.21-.12-.03-.63-.05-.81.33-.1,0-.2-.04-.27-.1-.07.09-.17.15-.31.19.12.25.38.21.53.09,0,.03,0,.07,0,.11,0,.62.67.78,1.07.55-.07.2-.04.46,0,.63h-1.61c.03-.17.24-.37.42-.5l-.14-.23c-.17.08-.34.15-.53.2-.45.12-.42-.2.04-.33ZM94.46,13.12c-.06.09-.45.21-.54.15-.16-.1-.24-.31-.2-.4.05-.12.47-.23.6-.19.14.05.19.36.14.44ZM92.22,12.12c.36-.2.54-.35.73-.65-.14-.07-.31-.19-.43-.36.68.19,1.02.29,1.82,0-.13.21-.32.33-.49.43.18.3.36.64.42.91-.24-.02-.51.04-.7.22-.3.01-.68.11-.88-.57-.11.05-.22.13-.22.13.12.44.34.74.94.68.04.14.06.22.13.34-.25.14-.86.5-1.32.09v-1.21Z"/><path class="b" d="M91.65,12.93v.97h.22c-.04-.13-.07-.24-.06-.32.06-.49-.02-.54-.16-.66Z"/><path class="b" d="M98.2,13.9v-1.21c-.14.01-.29.1-.4.28.01,0,.02,0,.03,0,.27,0,.36.37.35.75,0,.06,0,.13,0,.18h.02Z"/><path class="b" d="M93.25,12.25c.11.05.25,0,.4,0-.03-.06-.06-.11-.04-.2.04-.18-.1-.22-.17-.21-.16,0-.26.04-.43,0,.12.11.09.33.24.4Z"/><path class="b" d="M91.82,13.58c.06-.5-.02-.54-.17-.66-.13-.1-.34-.14-.54-.28-.15-.1-.19-.25-.38-.45.04-.42.34-.94.56-1.06.03-.02.02-.68.02-.68,0,0,.15,0,.13-.02-.2-.12-.44-.03-.62.17-.17.14-.56.4-.82.49-.36-.31-.93-.57-1.34-.99,0,0,.55,0,.8-.11.07-.04.24-.32.17-.58-.09-.03-.21-.09-.33-.16-.15-.09-.29-.18-.36-.23-.24-.18-.33-.34-.74-.44.03-.19.07-.14.25-.27.23-.16.36-.34.45-.53.07-.14,0-.44-.19-.06-.07.13-.24.31-.45.36.02-.12.02-.18.02-.25.6-.42.54-.8.49-1.15-.02-.2-.23-.29-.22-.08,0,.14.13.54-.28.77,0-.18-.06-.26-.09-.35.37-.48.21-.95.06-1.16-.1-.14-.34-.18-.23.03.09.18.23.65-.04.85-.09-.12-.2-.16-.24-.32.03-.52,0-.84-.07-1.03-.06-.18-.23-.28-.22-.03.01.29.04.66.01.68-.03.02-.41-.34-.57-.44-.16-.11-.35-.07-.16.15.16.19.66.55.59.67-.04.07-.39-.22-.58-.28-.19-.06-.24.03-.09.16.25.21.42.34.83.48.41.14.62.71.49,1.53,0,.04-.08.03-.12.02-.02-.31-.07-.69-.15-.85-.1-.21-.29-.22-.22.07.06.23.09.48.05.79-.34-.06-.47-.15-.62-.23-.02-.16.06-.42.08-.65.01-.23-.12-.38-.2-.08-.07.28-.12.41-.17.61-.1-.03-.2-.07-.25-.13-.02-.02,0-.34-.03-.56-.02-.25-.12-.25-.2-.02-.03.1-.06.24-.07.4-.12-.07-.2-.21-.22-.32.02-.27.06-.55.1-.73.02-.13-.06-.38-.16-.07-.07.22-.09.41-.13.57-.09,0-.2-.52-.26-.84-.03-.15-.15-.32-.17.01-.02.36.05.73.14.89-.18-.02-.34-.33-.46-.52-.11-.16-.16,0-.15.07.1.64.62.87.85.92.36.52,1.05.74,1.63.99-.76,0-.95.3-1.3.1.02.29.16.42.29.48.1.04.19.06.24.07.06.35.39.33.67.35-.07.67.01,1.57.6,2.23-.02.34-.04.79-.04,1.09-.49.45-.92,1.4-1.09,1.92-.13.39-.32.69-.62.84.24.26.6.13.81-.01.02.23.07.39.1.53-.14.21-.23.35-.22.6-.16.04-.27.14-.35.25-.05.07,0,.38.07.51.19.43.04,1.41,0,1.7.08,0,.23,0,.26-.11.05.04.17.13.22.32-.01.08-.06.38.09.42.13.03.67.01.74-.08-.05-.06-.15-.2-.21-.35,0-.15-.01-.33-.05-.41-.06-.11-.22-.36-.32-.46-.02-.18-.04-.98.04-1.28.14-.1,1.1-.81,1.3-1.49.18.06.12.54.12,1.15,0,.17.2.25.32.26.26.03.63.28,1.04.89.08-.09.19-.17.19-.17.05.07.12.25.15.36.04.08.38.13.64.06.09-.03.13-.04.19-.13-.33-.56-.52-.94-.94-1.25-.19-.15-.45-.22-.67-.36.14-.27.54-1.54.3-2-.08-.15-.38-.31-.75-.24.31-.37.93-1.1,1.01-1.32.07.09.44.03.71.13.1.04.38.4.39.53.02.22.04.49-.12,1.1.11-.02.09-.02.2-.07.02.16-.03.29-.17.54.04.22.13.56.24.63.14-.41.65-1,.64-1.34-.02-.47-.24-.86-.21-1.06h0Z"/><path class="b" d="M112.71,13.14s-.15.09-.46.09c-.4,0-.76-.24-.96-.37-.25-.16-.65-.4-1.05-.52-.78,0-1.29-.22-1.69-.73-.4-.51-.6-1.17-.6-1.93,0-1.12.43-2.03,1.18-2.44.31-.16.69-.25,1.08-.25,1.39,0,2.24,1.01,2.24,2.64,0,1.13-.4,1.98-1.03,2.39.14.05.34.19.46.26.19.11.41.22.64.22s.46-.04.46-.04l-.28.68ZM111.1,8.45c-.08-.26-.36-.66-.91-.66-.35,0-.66.18-.81.46-.18.34-.26.79-.26,1.42,0,.9.15,1.46.47,1.68.16.12.37.18.62.18.73,0,1.03-.55,1.03-1.88,0-.53-.04-.91-.14-1.21Z"/><path class="b" d="M115.75,12.36c-.13-.09-.23-.22-.3-.38-.25.24-.61.37-1.01.37-.54,0-1-.25-1.13-.62-.06-.17-.08-.37-.08-.77v-2.46l.99-.19v2.46c0,.35.03.53.08.63.05.11.2.18.35.18.25,0,.55-.18.62-.37v-2.7l.96-.2v2.93c0,.26.08.52.23.7l-.71.41Z"/><path class="b" d="M118.13,10.65v.03c0,.59.29.93.81.93.34,0,.67-.13.97-.38l.39.6c-.44.36-.91.53-1.45.53-1.1,0-1.81-.78-1.81-1.99,0-.69.14-1.14.48-1.52.31-.35.7-.52,1.21-.52.44,0,.86.15,1.11.4.35.36.51.88.51,1.68v.23h-2.22ZM119.31,9.87c0-.29-.03-.43-.12-.58-.1-.15-.24-.23-.44-.23-.38,0-.6.3-.6.83v.02h1.16v-.05Z"/><path class="b" d="M121.92,10.65v.03c0,.59.29.93.81.93.34,0,.67-.13.97-.38l.39.6c-.44.36-.91.53-1.45.53-1.1,0-1.81-.78-1.81-1.99,0-.69.14-1.14.48-1.52.31-.35.7-.52,1.21-.52.44,0,.86.15,1.11.4.35.36.51.88.51,1.68v.23h-2.22ZM123.09,9.87c0-.29-.03-.43-.12-.58-.1-.15-.24-.23-.44-.23-.38,0-.6.3-.6.83v.02h1.16v-.05Z"/><path class="b" d="M126.88,12.25v-2.49c0-.43-.07-.56-.34-.56-.2,0-.46.14-.7.34v2.71h-1v-2.78c0-.33-.04-.64-.14-.9l.89-.25c.09.16.14.32.14.48.15-.11.28-.2.44-.29.2-.1.46-.16.69-.16.43,0,.8.22.92.55.05.14.07.31.07.55v2.8h-.99Z"/><path class="b" d="M130.05,12.37c-.47,0-.99-.15-1.55-.44l.36-.73c.31.19.84.44,1.27.44.28,0,.51-.19.51-.44,0-.26-.19-.4-.59-.47l-.45-.08c-.25-.05-.57-.22-.71-.39-.13-.17-.22-.44-.22-.69,0-.75.59-1.25,1.48-1.25.61,0,1.02.19,1.37.36l-.33.67c-.38-.2-.66-.28-.94-.28s-.49.15-.49.38c0,.19.13.3.48.39l.46.12c.47.12.63.26.76.43.14.18.21.4.21.65,0,.8-.66,1.33-1.64,1.33Z"/><path class="b" d="M133.38,12.34c-.43,0-.77-.2-.89-.52-.07-.2-.09-.32-.09-.86v-2.86c0-.5-.02-.81-.05-1.15l1.02-.23c.04.21.05.46.05,1v2.99c0,.66,0,.75.07.85.04.07.12.1.2.1.04,0,.06,0,.11-.01l.17.6c-.17.07-.38.1-.6.1Z"/><path class="b" d="M137.06,12.45c-.23-.1-.44-.27-.54-.46-.07.07-.16.15-.23.2-.19.14-.46.21-.77.21-.85,0-1.32-.44-1.32-1.2,0-.9.62-1.32,1.84-1.32.08,0,.14,0,.23,0v-.16c0-.43-.08-.57-.45-.57-.32,0-.7.16-1.11.43l-.43-.72c.2-.13.35-.2.62-.32.38-.16.7-.22,1.05-.22.64,0,1.09.24,1.24.66.05.16.07.28.07.69l-.02,1.29c0,.42.02.6.36.86l-.53.61ZM136.21,10.57c-.69,0-.94.13-.94.58,0,.3.19.5.44.5.19,0,.37-.1.52-.26v-.82s-.03,0-.03,0Z"/><path class="b" d="M140.33,12.25v-2.49c0-.43-.07-.56-.34-.56-.2,0-.46.14-.7.34v2.71h-1v-2.78c0-.33-.04-.64-.14-.9l.89-.25c.09.16.14.32.14.48.15-.11.28-.2.44-.29.2-.1.46-.16.69-.16.43,0,.8.22.92.55.05.14.08.31.08.55v2.8h-.99Z"/><path class="b" d="M144.67,12.25c-.03-.06-.05-.12-.06-.22-.25.22-.54.32-.88.32-.97,0-1.59-.76-1.59-1.95s.67-2.02,1.64-2.02c.28,0,.49.07.68.22-.02-.08-.03-.34-.03-.57v-1.32l1,.16v3.98c0,.94.08,1.25.14,1.4h-.9ZM144.45,9.43c-.19-.17-.37-.25-.55-.25-.45,0-.64.37-.64,1.23s.17,1.09.7,1.09c.19,0,.4-.13.49-.25v-1.83Z"/><path class="b" d="M110.31,19.58c-.64,0-1.19-.22-1.58-.64-.44-.47-.64-1.11-.64-1.99,0-.98.26-1.68.79-2.16.37-.33.81-.49,1.34-.49s1.02.17,1.41.51l-.28.38c-.42-.29-.72-.4-1.12-.4-.6,0-1.07.28-1.28.87-.13.38-.2.82-.2,1.3,0,.67.13,1.22.36,1.56.23.34.76.55,1.24.55.32,0,.6-.07.82-.2v-1.57h-1.03l-.12-.51h1.73v2.4c-.37.24-.92.39-1.45.39Z"/><path class="b" d="M114.38,19.6c-1.03,0-1.61-.76-1.61-1.98s.61-1.95,1.59-1.95c.62,0,1.03.28,1.28.65.23.34.34.78.34,1.39,0,1.24-.67,1.9-1.6,1.9ZM115.14,16.62c-.16-.33-.49-.48-.79-.48-.33,0-.64.16-.76.4-.12.23-.18.53-.18.97,0,.53.09.99.23,1.22.13.22.43.37.76.37.39,0,.68-.2.81-.56.08-.23.11-.44.11-.81,0-.52-.05-.88-.17-1.12Z"/><path class="b" d="M118.31,19.54h-.58l-1.34-3.74.6-.13.87,2.57c.1.31.18.64.18.64h.02s.06-.29.18-.63l.85-2.48h.62l-1.4,3.77Z"/><path class="b" d="M120.86,17.73v.09c0,.35.04.62.17.82.21.32.55.46.93.46s.65-.11.91-.35l.22.38c-.33.3-.78.46-1.26.46-1.03,0-1.66-.75-1.66-1.98,0-.63.14-1.03.45-1.41.3-.35.67-.52,1.12-.52.4,0,.76.14,1.01.4.32.33.43.68.43,1.57v.08h-2.33ZM122.4,16.46c-.13-.2-.39-.33-.67-.33-.53,0-.83.39-.86,1.16h1.71c0-.41-.06-.65-.17-.83Z"/><path class="b" d="M125.82,16.33s-.1-.03-.17-.03c-.22,0-.45.1-.62.27-.17.17-.22.28-.22.59v2.34h-.58v-2.88c0-.55-.13-.8-.13-.8l.58-.16s.14.29.12.61c.27-.38.67-.62,1.05-.62.1,0,.2.04.2.04l-.24.64Z"/><path class="b" d="M128.77,19.5v-2.52c0-.4-.03-.49-.13-.62-.08-.1-.24-.16-.41-.16-.3,0-.76.24-1.03.52v2.78h-.57v-2.88c0-.53-.14-.79-.14-.79l.57-.16s.13.28.13.58c.39-.39.78-.58,1.18-.58s.76.22.91.55c.06.13.09.28.09.43v2.83h-.59Z"/><path class="b" d="M134.58,19.5v-2.76c0-.36-.17-.55-.48-.55-.34,0-.6.22-.99.58v2.73h-.59v-2.65c0-.22-.02-.37-.11-.48-.09-.11-.21-.15-.38-.15-.29,0-.56.14-.95.49v2.79h-.56v-2.89c0-.54-.14-.8-.14-.8l.57-.13s.14.29.14.56c.25-.28.7-.56,1.09-.56s.73.23.87.62c.36-.38.82-.62,1.2-.62.55,0,.94.42.94,1.01v2.82h-.6Z"/><path class="b" d="M136.78,17.73v.09c0,.35.05.62.17.82.21.32.55.46.93.46s.65-.11.91-.35l.22.38c-.33.3-.78.46-1.26.46-1.03,0-1.65-.75-1.65-1.98,0-.63.13-1.03.45-1.41.3-.35.66-.52,1.11-.52.4,0,.76.14,1.01.4.32.33.43.68.43,1.57v.08h-2.33ZM138.32,16.46c-.13-.2-.39-.33-.68-.33-.53,0-.83.39-.86,1.16h1.71c0-.41-.06-.65-.17-.83Z"/><path class="b" d="M142.31,19.5v-2.52c0-.4-.03-.49-.14-.62-.08-.1-.24-.16-.41-.16-.3,0-.76.24-1.03.52v2.78h-.57v-2.88c0-.53-.14-.79-.14-.79l.57-.16s.13.28.13.58c.39-.39.78-.58,1.18-.58s.77.22.91.55c.06.13.09.28.09.43v2.83h-.59Z"/><path class="b" d="M145.41,16.21h-.78v2.4c0,.41.11.56.48.56.16,0,.26-.02.37-.08l.08.38c-.19.1-.4.15-.66.15-.19,0-.34-.04-.49-.1-.26-.13-.36-.37-.36-.74v-2.56h-.49v-.44h.49c0-.36.06-.94.06-.94l.61-.13s-.08.58-.08,1.08h.94l-.18.44Z"/></svg>